<svg id="visual" viewBox="0 0 1000 200" width="1000" height="200" xmlns="http://www.w3.org/2000/svg" xmlns:xlink="http://www.w3.org/1999/xlink" version="1.1"><path d="M0 35L13.8 41.3C27.7 47.7 55.3 60.3 83.2 62.3C111 64.3 139 55.7 166.8 53C194.7 50.3 222.3 53.7 250 58.7C277.7 63.7 305.3 70.3 333.2 66.3C361 62.3 389 47.7 416.8 43C444.7 38.3 472.3 43.7 500 46C527.7 48.3 555.3 47.7 583.2 46.3C611 45 639 43 666.8 39.7C694.7 36.3 722.3 31.7 750 30.7C777.7 29.7 805.3 32.3 833.2 35C861 37.7 889 40.3 916.8 39.7C944.7 39 972.3 35 986.2 33L1000 31L1000 0L986.2 0C972.3 0 944.7 0 916.8 0C889 0 861 0 833.2 0C805.3 0 777.7 0 750 0C722.3 0 694.7 0 666.8 0C639 0 611 0 583.2 0C555.3 0 527.7 0 500 0C472.3 0 444.7 0 416.8 0C389 0 361 0 333.2 0C305.3 0 277.7 0 250 0C222.3 0 194.7 0 166.8 0C139 0 111 0 83.2 0C55.3 0 27.7 0 13.8 0L0 0Z" fill="#57f287"></path><path d="M0 121L13.8 120.3C27.7 119.7 55.3 118.3 83.2 117.7C111 117 139 117 166.8 114.7C194.7 112.3 222.3 107.7 250 107C277.7 106.3 305.3 109.7 333.2 109.7C361 109.7 389 106.3 416.8 105C444.7 103.7 472.3 104.3 500 104.3C527.7 104.3 555.3 103.7 583.2 100.7C611 97.7 639 92.3 666.8 91.3C694.7 90.3 722.3 93.7 750 94.3C777.7 95 805.3 93 833.2 91.3C861 89.7 889 88.3 916.8 88.3C944.7 88.3 972.3 89.7 986.2 90.3L1000 91L1000 29L986.2 31C972.3 33 944.7 37 916.8 37.7C889 38.3 861 35.7 833.2 33C805.3 30.3 777.7 27.7 750 28.7C722.3 29.7 694.7 34.3 666.8 37.7C639 41 611 43 583.2 44.3C555.3 45.7 527.7 46.3 500 44C472.3 41.7 444.7 36.3 416.8 41C389 45.7 361 60.3 333.2 64.3C305.3 68.3 277.7 61.7 250 56.7C222.3 51.7 194.7 48.3 166.8 51C139 53.7 111 62.3 83.2 60.3C55.3 58.3 27.7 45.7 13.8 39.3L0 33Z" fill="#84f69f"></path><path d="M0 141L13.8 139.3C27.7 137.7 55.3 134.3 83.2 133.7C111 133 139 135 166.8 132C194.7 129 222.3 121 250 120.3C277.7 119.7 305.3 126.3 333.2 127.7C361 129 389 125 416.8 125C444.7 125 472.3 129 500 130C527.7 131 555.3 129 583.2 125C611 121 639 115 666.8 113.7C694.7 112.3 722.3 115.7 750 116.3C777.7 117 805.3 115 833.2 112C861 109 889 105 916.8 104C944.7 103 972.3 105 986.2 106L1000 107L1000 89L986.2 88.3C972.3 87.7 944.7 86.3 916.8 86.3C889 86.3 861 87.7 833.2 89.3C805.3 91 777.7 93 750 92.3C722.3 91.7 694.7 88.3 666.8 89.3C639 90.3 611 95.7 583.2 98.7C555.3 101.7 527.7 102.3 500 102.3C472.3 102.3 444.7 101.7 416.8 103C389 104.3 361 107.7 333.2 107.7C305.3 107.7 277.7 104.3 250 105C222.3 105.7 194.7 110.3 166.8 112.7C139 115 111 115 83.2 115.7C55.3 116.3 27.7 117.7 13.8 118.3L0 119Z" fill="#a7f9b7"></path><path d="M0 165L13.8 162.3C27.7 159.7 55.3 154.3 83.2 154.3C111 154.3 139 159.7 166.8 162C194.7 164.3 222.3 163.7 250 161.3C277.7 159 305.3 155 333.2 152.3C361 149.7 389 148.3 416.8 148.3C444.7 148.3 472.3 149.7 500 152.7C527.7 155.7 555.3 160.3 583.2 159.7C611 159 639 153 666.8 154C694.7 155 722.3 163 750 163.7C777.7 164.3 805.3 157.7 833.2 152C861 146.3 889 141.7 916.8 142.3C944.7 143 972.3 149 986.2 152L1000 155L1000 105L986.2 104C972.3 103 944.7 101 916.8 102C889 103 861 107 833.2 110C805.3 113 777.7 115 750 114.3C722.3 113.7 694.7 110.3 666.8 111.7C639 113 611 119 583.2 123C555.3 127 527.7 129 500 128C472.3 127 444.7 123 416.8 123C389 123 361 127 333.2 125.7C305.3 124.3 277.7 117.7 250 118.3C222.3 119 194.7 127 166.8 130C139 133 111 131 83.2 131.7C55.3 132.3 27.7 135.7 13.8 137.3L0 139Z" fill="#c6fbcf"></path><path d="M0 185L13.8 182.7C27.7 180.3 55.3 175.7 83.2 174.7C111 173.7 139 176.3 166.8 178.3C194.7 180.3 222.3 181.7 250 181.7C277.7 181.7 305.3 180.3 333.2 180.7C361 181 389 183 416.8 184.3C444.7 185.7 472.3 186.3 500 187C527.7 187.7 555.3 188.3 583.2 186C611 183.7 639 178.3 666.8 177.3C694.7 176.3 722.3 179.7 750 179.7C777.7 179.7 805.3 176.3 833.2 174.3C861 172.3 889 171.7 916.8 171.3C944.7 171 972.3 171 986.2 171L1000 171L1000 153L986.2 150C972.3 147 944.7 141 916.8 140.3C889 139.7 861 144.3 833.2 150C805.3 155.7 777.7 162.3 750 161.7C722.3 161 694.7 153 666.8 152C639 151 611 157 583.2 157.7C555.3 158.3 527.7 153.7 500 150.7C472.3 147.7 444.7 146.3 416.8 146.3C389 146.3 361 147.7 333.2 150.3C305.3 153 277.7 157 250 159.3C222.3 161.7 194.7 162.3 166.8 160C139 157.7 111 152.3 83.2 152.3C55.3 152.3 27.7 157.7 13.8 160.3L0 163Z" fill="#e3fde7"></path><path d="M0 201L13.8 201C27.7 201 55.3 201 83.2 201C111 201 139 201 166.8 201C194.7 201 222.3 201 250 201C277.7 201 305.3 201 333.2 201C361 201 389 201 416.8 201C444.7 201 472.3 201 500 201C527.7 201 555.3 201 583.2 201C611 201 639 201 666.8 201C694.7 201 722.3 201 750 201C777.7 201 805.3 201 833.2 201C861 201 889 201 916.8 201C944.7 201 972.3 201 986.2 201L1000 201L1000 169L986.2 169C972.3 169 944.7 169 916.8 169.3C889 169.7 861 170.3 833.2 172.3C805.3 174.3 777.7 177.7 750 177.7C722.3 177.7 694.7 174.3 666.8 175.3C639 176.3 611 181.7 583.2 184C555.3 186.3 527.7 185.7 500 185C472.3 184.3 444.7 183.7 416.8 182.3C389 181 361 179 333.2 178.7C305.3 178.3 277.7 179.7 250 179.7C222.3 179.7 194.7 178.3 166.8 176.3C139 174.3 111 171.7 83.2 172.7C55.3 173.7 27.7 178.3 13.8 180.7L0 183Z" fill="#ffffff"></path></svg>