<svg id="visual" viewBox="0 0 1000 200" width="1000" height="200" xmlns="http://www.w3.org/2000/svg" xmlns:xlink="http://www.w3.org/1999/xlink" version="1.1"><path d="M0 41L71 41L71 63L143 63L143 41L214 41L214 29L286 29L286 25L357 25L357 55L429 55L429 17L500 17L500 21L571 21L571 29L643 29L643 41L714 41L714 39L786 39L786 61L857 61L857 23L929 23L929 59L1000 59L1000 37L1000 0L1000 0L929 0L929 0L857 0L857 0L786 0L786 0L714 0L714 0L643 0L643 0L571 0L571 0L500 0L500 0L429 0L429 0L357 0L357 0L286 0L286 0L214 0L214 0L143 0L143 0L71 0L71 0L0 0Z" fill="#57f287"></path><path d="M0 69L71 69L71 105L143 105L143 143L214 143L214 93L286 93L286 65L357 65L357 85L429 85L429 99L500 99L500 99L571 99L571 85L643 85L643 81L714 81L714 123L786 123L786 123L857 123L857 103L929 103L929 79L1000 79L1000 105L1000 35L1000 57L929 57L929 21L857 21L857 59L786 59L786 37L714 37L714 39L643 39L643 27L571 27L571 19L500 19L500 15L429 15L429 53L357 53L357 23L286 23L286 27L214 27L214 39L143 39L143 61L71 61L71 39L0 39Z" fill="#9ef16c"></path><path d="M0 103L71 103L71 141L143 141L143 169L214 169L214 135L286 135L286 79L357 79L357 123L429 123L429 135L500 135L500 143L571 143L571 119L643 119L643 103L714 103L714 145L786 145L786 153L857 153L857 151L929 151L929 129L1000 129L1000 119L1000 103L1000 77L929 77L929 101L857 101L857 121L786 121L786 121L714 121L714 79L643 79L643 83L571 83L571 97L500 97L500 97L429 97L429 83L357 83L357 63L286 63L286 91L214 91L214 141L143 141L143 103L71 103L71 67L0 67Z" fill="#d2ed5d"></path><path d="M0 201L71 201L71 201L143 201L143 201L214 201L214 201L286 201L286 201L357 201L357 201L429 201L429 201L500 201L500 201L571 201L571 201L643 201L643 201L714 201L714 201L786 201L786 201L857 201L857 201L929 201L929 201L1000 201L1000 201L1000 117L1000 127L929 127L929 149L857 149L857 151L786 151L786 143L714 143L714 101L643 101L643 117L571 117L571 141L500 141L500 133L429 133L429 121L357 121L357 77L286 77L286 133L214 133L214 167L143 167L143 139L71 139L71 101L0 101Z" fill="#fee75c"></path></svg>