<svg id="visual" viewBox="0 0 1000 200" width="1000" height="200" xmlns="http://www.w3.org/2000/svg"
    xmlns:xlink="http://www.w3.org/1999/xlink" version="1.1">
    <path
        d="M0 7L11.8 9C23.7 11 47.3 15 71.2 16.7C95 18.3 119 17.7 142.8 16C166.7 14.3 190.3 11.7 214.2 13.7C238 15.7 262 22.3 285.8 22.7C309.7 23 333.3 17 357.2 17.7C381 18.3 405 25.7 428.8 25C452.7 24.3 476.3 15.7 500 12.7C523.7 9.7 547.3 12.3 571.2 17.3C595 22.3 619 29.7 642.8 30.7C666.7 31.7 690.3 26.3 714.2 25C738 23.7 762 26.3 785.8 25C809.7 23.7 833.3 18.3 857.2 14.3C881 10.3 905 7.7 928.8 8.3C952.7 9 976.3 13 988.2 15L1000 17L1000 0L988.2 0C976.3 0 952.7 0 928.8 0C905 0 881 0 857.2 0C833.3 0 809.7 0 785.8 0C762 0 738 0 714.2 0C690.3 0 666.7 0 642.8 0C619 0 595 0 571.2 0C547.3 0 523.7 0 500 0C476.3 0 452.7 0 428.8 0C405 0 381 0 357.2 0C333.3 0 309.7 0 285.8 0C262 0 238 0 214.2 0C190.3 0 166.7 0 142.8 0C119 0 95 0 71.2 0C47.3 0 23.7 0 11.8 0L0 0Z"
        fill="#57f287"></path>
    <path
        d="M0 29L11.8 29.3C23.7 29.7 47.3 30.3 71.2 30C95 29.7 119 28.3 142.8 26.7C166.7 25 190.3 23 214.2 29.3C238 35.7 262 50.3 285.8 50.3C309.7 50.3 333.3 35.7 357.2 32C381 28.3 405 35.7 428.8 36.3C452.7 37 476.3 31 500 28.3C523.7 25.7 547.3 26.3 571.2 34.3C595 42.3 619 57.7 642.8 62.7C666.7 67.7 690.3 62.3 714.2 56.7C738 51 762 45 785.8 42.3C809.7 39.7 833.3 40.3 857.2 41C881 41.7 905 42.3 928.8 40.7C952.7 39 976.3 35 988.2 33L1000 31L1000 15L988.2 13C976.3 11 952.7 7 928.8 6.3C905 5.7 881 8.3 857.2 12.3C833.3 16.3 809.7 21.7 785.8 23C762 24.3 738 21.7 714.2 23C690.3 24.3 666.7 29.7 642.8 28.7C619 27.7 595 20.3 571.2 15.3C547.3 10.3 523.7 7.7 500 10.7C476.3 13.7 452.7 22.3 428.8 23C405 23.7 381 16.3 357.2 15.7C333.3 15 309.7 21 285.8 20.7C262 20.3 238 13.7 214.2 11.7C190.3 9.7 166.7 12.3 142.8 14C119 15.7 95 16.3 71.2 14.7C47.3 13 23.7 9 11.8 7L0 5Z"
        fill="#7ff279"></path>
    <path
        d="M0 51L11.8 56C23.7 61 47.3 71 71.2 71C95 71 119 61 142.8 62.3C166.7 63.7 190.3 76.3 214.2 82C238 87.7 262 86.3 285.8 81C309.7 75.7 333.3 66.3 357.2 62.3C381 58.3 405 59.7 428.8 64.3C452.7 69 476.3 77 500 81.3C523.7 85.7 547.3 86.3 571.2 95.3C595 104.3 619 121.7 642.8 122.3C666.7 123 690.3 107 714.2 103.3C738 99.7 762 108.3 785.8 109.3C809.7 110.3 833.3 103.7 857.2 97.7C881 91.7 905 86.3 928.8 79.7C952.7 73 976.3 65 988.2 61L1000 57L1000 29L988.2 31C976.3 33 952.7 37 928.8 38.7C905 40.3 881 39.7 857.2 39C833.3 38.3 809.7 37.7 785.8 40.3C762 43 738 49 714.2 54.7C690.3 60.3 666.7 65.7 642.8 60.7C619 55.7 595 40.3 571.2 32.3C547.3 24.3 523.7 23.7 500 26.3C476.3 29 452.7 35 428.8 34.3C405 33.7 381 26.3 357.2 30C333.3 33.7 309.7 48.3 285.8 48.3C262 48.3 238 33.7 214.2 27.3C190.3 21 166.7 23 142.8 24.7C119 26.3 95 27.7 71.2 28C47.3 28.3 23.7 27.7 11.8 27.3L0 27Z"
        fill="#9ef16c"></path>
    <path
        d="M0 99L11.8 101.7C23.7 104.3 47.3 109.7 71.2 105.7C95 101.7 119 88.3 142.8 85.7C166.7 83 190.3 91 214.2 99C238 107 262 115 285.8 113C309.7 111 333.3 99 357.2 95.7C381 92.3 405 97.7 428.8 105.7C452.7 113.7 476.3 124.3 500 125.7C523.7 127 547.3 119 571.2 122.7C595 126.3 619 141.7 642.8 139.7C666.7 137.7 690.3 118.3 714.2 120.3C738 122.3 762 145.7 785.8 152.3C809.7 159 833.3 149 857.2 141C881 133 905 127 928.8 118.3C952.7 109.7 976.3 98.3 988.2 92.7L1000 87L1000 55L988.2 59C976.3 63 952.7 71 928.8 77.7C905 84.3 881 89.7 857.2 95.7C833.3 101.7 809.7 108.3 785.8 107.3C762 106.3 738 97.7 714.2 101.3C690.3 105 666.7 121 642.8 120.3C619 119.7 595 102.3 571.2 93.3C547.3 84.3 523.7 83.7 500 79.3C476.3 75 452.7 67 428.8 62.3C405 57.7 381 56.3 357.2 60.3C333.3 64.3 309.7 73.7 285.8 79C262 84.3 238 85.7 214.2 80C190.3 74.3 166.7 61.7 142.8 60.3C119 59 95 69 71.2 69C47.3 69 23.7 59 11.8 54L0 49Z"
        fill="#b9ef63"></path>
    <path
        d="M0 183L11.8 180C23.7 177 47.3 171 71.2 165.3C95 159.7 119 154.3 142.8 151.7C166.7 149 190.3 149 214.2 153C238 157 262 165 285.8 169C309.7 173 333.3 173 357.2 173C381 173 405 173 428.8 171.7C452.7 170.3 476.3 167.7 500 165.7C523.7 163.7 547.3 162.3 571.2 165.3C595 168.3 619 175.7 642.8 176.7C666.7 177.7 690.3 172.3 714.2 172C738 171.7 762 176.3 785.8 175.3C809.7 174.3 833.3 167.7 857.2 164C881 160.3 905 159.7 928.8 163.7C952.7 167.7 976.3 176.3 988.2 180.7L1000 185L1000 85L988.2 90.7C976.3 96.3 952.7 107.7 928.8 116.3C905 125 881 131 857.2 139C833.3 147 809.7 157 785.8 150.3C762 143.7 738 120.3 714.2 118.3C690.3 116.3 666.7 135.7 642.8 137.7C619 139.7 595 124.3 571.2 120.7C547.3 117 523.7 125 500 123.7C476.3 122.3 452.7 111.7 428.8 103.7C405 95.7 381 90.3 357.2 93.7C333.3 97 309.7 109 285.8 111C262 113 238 105 214.2 97C190.3 89 166.7 81 142.8 83.7C119 86.3 95 99.7 71.2 103.7C47.3 107.7 23.7 102.3 11.8 99.7L0 97Z"
        fill="#d2ed5d"></path>
    <path
        d="M0 193L11.8 190C23.7 187 47.3 181 71.2 178C95 175 119 175 142.8 175C166.7 175 190.3 175 214.2 176.3C238 177.7 262 180.3 285.8 180.7C309.7 181 333.3 179 357.2 180.3C381 181.7 405 186.3 428.8 188.3C452.7 190.3 476.3 189.7 500 189C523.7 188.3 547.3 187.7 571.2 187.7C595 187.7 619 188.3 642.8 185.7C666.7 183 690.3 177 714.2 177.3C738 177.7 762 184.3 785.8 187C809.7 189.7 833.3 188.3 857.2 187C881 185.7 905 184.3 928.8 186C952.7 187.7 976.3 192.3 988.2 194.7L1000 197L1000 183L988.2 178.7C976.3 174.3 952.7 165.7 928.8 161.7C905 157.7 881 158.3 857.2 162C833.3 165.7 809.7 172.3 785.8 173.3C762 174.3 738 169.7 714.2 170C690.3 170.3 666.7 175.7 642.8 174.7C619 173.7 595 166.3 571.2 163.3C547.3 160.3 523.7 161.7 500 163.7C476.3 165.7 452.7 168.3 428.8 169.7C405 171 381 171 357.2 171C333.3 171 309.7 171 285.8 167C262 163 238 155 214.2 151C190.3 147 166.7 147 142.8 149.7C119 152.3 95 157.7 71.2 163.3C47.3 169 23.7 175 11.8 178L0 181Z"
        fill="#e9ea5a"></path>
    <path
        d="M0 201L11.8 201C23.7 201 47.3 201 71.2 201C95 201 119 201 142.8 201C166.7 201 190.3 201 214.2 201C238 201 262 201 285.8 201C309.7 201 333.3 201 357.2 201C381 201 405 201 428.8 201C452.7 201 476.3 201 500 201C523.7 201 547.3 201 571.2 201C595 201 619 201 642.8 201C666.7 201 690.3 201 714.2 201C738 201 762 201 785.8 201C809.7 201 833.3 201 857.2 201C881 201 905 201 928.8 201C952.7 201 976.3 201 988.2 201L1000 201L1000 195L988.2 192.7C976.3 190.3 952.7 185.7 928.8 184C905 182.3 881 183.7 857.2 185C833.3 186.3 809.7 187.7 785.8 185C762 182.3 738 175.7 714.2 175.3C690.3 175 666.7 181 642.8 183.7C619 186.3 595 185.7 571.2 185.7C547.3 185.7 523.7 186.3 500 187C476.3 187.7 452.7 188.3 428.8 186.3C405 184.3 381 179.7 357.2 178.3C333.3 177 309.7 179 285.8 178.7C262 178.3 238 175.7 214.2 174.3C190.3 173 166.7 173 142.8 173C119 173 95 173 71.2 176C47.3 179 23.7 185 11.8 188L0 191Z"
        fill="#fee75c"></path>
</svg>