<svg id="visual" viewBox="0 0 1000 200" width="1000" height="200" xmlns="http://www.w3.org/2000/svg" xmlns:xlink="http://www.w3.org/1999/xlink" version="1.1"><path d="M0 29L125 29L125 29L250 29L250 21L375 21L375 9L500 9L500 35L625 35L625 25L750 25L750 11L875 11L875 31L1000 31L1000 31L1000 0L1000 0L875 0L875 0L750 0L750 0L625 0L625 0L500 0L500 0L375 0L375 0L250 0L250 0L125 0L125 0L0 0Z" fill="#23272a"></path><path d="M0 33L125 33L125 43L250 43L250 29L375 29L375 17L500 17L500 43L625 43L625 35L750 35L750 19L875 19L875 37L1000 37L1000 37L1000 29L1000 29L875 29L875 9L750 9L750 23L625 23L625 33L500 33L500 7L375 7L375 19L250 19L250 27L125 27L125 27L0 27Z" fill="#253346"></path><path d="M0 71L125 71L125 85L250 85L250 65L375 65L375 45L500 45L500 77L625 77L625 75L750 75L750 73L875 73L875 77L1000 77L1000 81L1000 35L1000 35L875 35L875 17L750 17L750 33L625 33L625 41L500 41L500 15L375 15L375 27L250 27L250 41L125 41L125 31L0 31Z" fill="#363d61"></path><path d="M0 109L125 109L125 107L250 107L250 117L375 117L375 105L500 105L500 95L625 95L625 113L750 113L750 103L875 103L875 107L1000 107L1000 139L1000 79L1000 75L875 75L875 71L750 71L750 73L625 73L625 75L500 75L500 43L375 43L375 63L250 63L250 83L125 83L125 69L0 69Z" fill="#584175"></path><path d="M0 125L125 125L125 123L250 123L250 125L375 125L375 111L500 111L500 99L625 99L625 129L750 129L750 111L875 111L875 123L1000 123L1000 159L1000 137L1000 105L875 105L875 101L750 101L750 111L625 111L625 93L500 93L500 103L375 103L375 115L250 115L250 105L125 105L125 107L0 107Z" fill="#833f7d"></path><path d="M0 149L125 149L125 153L250 153L250 147L375 147L375 135L500 135L500 113L625 113L625 145L750 145L750 139L875 139L875 147L1000 147L1000 165L1000 157L1000 121L875 121L875 109L750 109L750 127L625 127L625 97L500 97L500 109L375 109L375 123L250 123L250 121L125 121L125 123L0 123Z" fill="#af3978"></path><path d="M0 179L125 179L125 193L250 193L250 185L375 185L375 177L500 177L500 183L625 183L625 177L750 177L750 195L875 195L875 181L1000 181L1000 181L1000 163L1000 145L875 145L875 137L750 137L750 143L625 143L625 111L500 111L500 133L375 133L375 145L250 145L250 151L125 151L125 147L0 147Z" fill="#d43564"></path><path d="M0 201L125 201L125 201L250 201L250 201L375 201L375 201L500 201L500 201L625 201L625 201L750 201L750 201L875 201L875 201L1000 201L1000 201L1000 179L1000 179L875 179L875 193L750 193L750 175L625 175L625 181L500 181L500 175L375 175L375 183L250 183L250 191L125 191L125 177L0 177Z" fill="#ed4245"></path></svg>