<svg id="visual" viewBox="0 0 1000 200" width="1000" height="200" xmlns="http://www.w3.org/2000/svg" xmlns:xlink="http://www.w3.org/1999/xlink" version="1.1"><path d="M0 37L71 37L71 41L143 41L143 71L214 71L214 49L286 49L286 65L357 65L357 51L429 51L429 61L500 61L500 39L571 39L571 63L643 63L643 37L714 37L714 53L786 53L786 49L857 49L857 59L929 59L929 19L1000 19L1000 49L1000 0L1000 0L929 0L929 0L857 0L857 0L786 0L786 0L714 0L714 0L643 0L643 0L571 0L571 0L500 0L500 0L429 0L429 0L357 0L357 0L286 0L286 0L214 0L214 0L143 0L143 0L71 0L71 0L0 0Z" fill="#ffffff"></path><path d="M0 53L71 53L71 77L143 77L143 89L214 89L214 81L286 81L286 85L357 85L357 95L429 95L429 81L500 81L500 55L571 55L571 95L643 95L643 73L714 73L714 87L786 87L786 67L857 67L857 81L929 81L929 33L1000 33L1000 73L1000 47L1000 17L929 17L929 57L857 57L857 47L786 47L786 51L714 51L714 35L643 35L643 61L571 61L571 37L500 37L500 59L429 59L429 49L357 49L357 63L286 63L286 47L214 47L214 69L143 69L143 39L71 39L71 35L0 35Z" fill="#afb0b2"></path><path d="M0 141L71 141L71 155L143 155L143 143L214 143L214 135L286 135L286 113L357 113L357 159L429 159L429 173L500 173L500 105L571 105L571 129L643 129L643 115L714 115L714 147L786 147L786 107L857 107L857 117L929 117L929 85L1000 85L1000 141L1000 71L1000 31L929 31L929 79L857 79L857 65L786 65L786 85L714 85L714 71L643 71L643 93L571 93L571 53L500 53L500 79L429 79L429 93L357 93L357 83L286 83L286 79L214 79L214 87L143 87L143 75L71 75L71 51L0 51Z" fill="#65676a"></path><path d="M0 201L71 201L71 201L143 201L143 201L214 201L214 201L286 201L286 201L357 201L357 201L429 201L429 201L500 201L500 201L571 201L571 201L643 201L643 201L714 201L714 201L786 201L786 201L857 201L857 201L929 201L929 201L1000 201L1000 201L1000 139L1000 83L929 83L929 115L857 115L857 105L786 105L786 145L714 145L714 113L643 113L643 127L571 127L571 103L500 103L500 171L429 171L429 157L357 157L357 111L286 111L286 133L214 133L214 141L143 141L143 153L71 153L71 139L0 139Z" fill="#23272a"></path></svg>