<svg id="visual" viewBox="0 0 1000 200" width="1000" height="200" xmlns="http://www.w3.org/2000/svg" xmlns:xlink="http://www.w3.org/1999/xlink" version="1.1"><path d="M0 13L7.2 12.3C14.3 11.7 28.7 10.3 43.2 14.7C57.7 19 72.3 29 86.8 31C101.3 33 115.7 27 130.2 21.3C144.7 15.7 159.3 10.3 173.8 6.8C188.3 3.3 202.7 1.7 217.2 6.7C231.7 11.7 246.3 23.3 260.8 29.5C275.3 35.7 289.7 36.3 304.2 32.7C318.7 29 333.3 21 347.8 15.3C362.3 9.7 376.7 6.3 391.2 7.7C405.7 9 420.3 15 434.8 16C449.3 17 463.7 13 478.2 10.7C492.7 8.3 507.3 7.7 521.8 11.3C536.3 15 550.7 23 565.2 25.3C579.7 27.7 594.3 24.3 608.8 23.3C623.3 22.3 637.7 23.7 652.2 24C666.7 24.3 681.3 23.7 695.8 20.3C710.3 17 724.7 11 739.2 12C753.7 13 768.3 21 782.8 23.7C797.3 26.3 811.7 23.7 826.2 20C840.7 16.3 855.3 11.7 869.8 14.7C884.3 17.7 898.7 28.3 913.2 29.3C927.7 30.3 942.3 21.7 956.8 20.3C971.3 19 985.7 25 992.8 28L1000 31L1000 0L992.8 0C985.7 0 971.3 0 956.8 0C942.3 0 927.7 0 913.2 0C898.7 0 884.3 0 869.8 0C855.3 0 840.7 0 826.2 0C811.7 0 797.3 0 782.8 0C768.3 0 753.7 0 739.2 0C724.7 0 710.3 0 695.8 0C681.3 0 666.7 0 652.2 0C637.7 0 623.3 0 608.8 0C594.3 0 579.7 0 565.2 0C550.7 0 536.3 0 521.8 0C507.3 0 492.7 0 478.2 0C463.7 0 449.3 0 434.8 0C420.3 0 405.7 0 391.2 0C376.7 0 362.3 0 347.8 0C333.3 0 318.7 0 304.2 0C289.7 0 275.3 0 260.8 0C246.3 0 231.7 0 217.2 0C202.7 0 188.3 0 173.8 0C159.3 0 144.7 0 130.2 0C115.7 0 101.3 0 86.8 0C72.3 0 57.7 0 43.2 0C28.7 0 14.3 0 7.2 0L0 0Z" fill="#000000"></path><path d="M0 67L7.2 67.7C14.3 68.3 28.7 69.7 43.2 72.7C57.7 75.7 72.3 80.3 86.8 74C101.3 67.7 115.7 50.3 130.2 50.7C144.7 51 159.3 69 173.8 66.3C188.3 63.7 202.7 40.3 217.2 37.3C231.7 34.3 246.3 51.7 260.8 55.7C275.3 59.7 289.7 50.3 304.2 52C318.7 53.7 333.3 66.3 347.8 69.7C362.3 73 376.7 67 391.2 65.3C405.7 63.7 420.3 66.3 434.8 74.7C449.3 83 463.7 97 478.2 103.3C492.7 109.7 507.3 108.3 521.8 97.3C536.3 86.3 550.7 65.7 565.2 61.3C579.7 57 594.3 69 608.8 80C623.3 91 637.7 101 652.2 98C666.7 95 681.3 79 695.8 70.3C710.3 61.7 724.7 60.3 739.2 64.3C753.7 68.3 768.3 77.7 782.8 77.7C797.3 77.7 811.7 68.3 826.2 56.7C840.7 45 855.3 31 869.8 37.3C884.3 43.7 898.7 70.3 913.2 79.7C927.7 89 942.3 81 956.8 79.3C971.3 77.7 985.7 82.3 992.8 84.7L1000 87L1000 29L992.8 26C985.7 23 971.3 17 956.8 18.3C942.3 19.7 927.7 28.3 913.2 27.3C898.7 26.3 884.3 15.7 869.8 12.7C855.3 9.7 840.7 14.3 826.2 18C811.7 21.7 797.3 24.3 782.8 21.7C768.3 19 753.7 11 739.2 10C724.7 9 710.3 15 695.8 18.3C681.3 21.7 666.7 22.3 652.2 22C637.7 21.7 623.3 20.3 608.8 21.3C594.3 22.3 579.7 25.7 565.2 23.3C550.7 21 536.3 13 521.8 9.3C507.3 5.7 492.7 6.3 478.2 8.7C463.7 11 449.3 15 434.8 14C420.3 13 405.7 7 391.2 5.7C376.7 4.3 362.3 7.7 347.8 13.3C333.3 19 318.7 27 304.2 30.7C289.7 34.3 275.3 33.7 260.8 27.8C246.3 22 231.7 11 217.2 6C202.7 1 188.3 2 173.8 5.2C159.3 8.3 144.7 13.7 130.2 19.3C115.7 25 101.3 31 86.8 29C72.3 27 57.7 17 43.2 12.7C28.7 8.3 14.3 9.7 7.2 10.3L0 11Z" fill="#362e00"></path><path d="M0 87L7.2 90.3C14.3 93.7 28.7 100.3 43.2 100.7C57.7 101 72.3 95 86.8 86.3C101.3 77.7 115.7 66.3 130.2 72.3C144.7 78.3 159.3 101.7 173.8 98C188.3 94.3 202.7 63.7 217.2 59.3C231.7 55 246.3 77 260.8 80.3C275.3 83.7 289.7 68.3 304.2 67.3C318.7 66.3 333.3 79.7 347.8 82C362.3 84.3 376.7 75.7 391.2 78C405.7 80.3 420.3 93.7 434.8 102C449.3 110.3 463.7 113.7 478.2 117C492.7 120.3 507.3 123.7 521.8 113C536.3 102.3 550.7 77.7 565.2 74.7C579.7 71.7 594.3 90.3 608.8 106C623.3 121.7 637.7 134.3 652.2 129.3C666.7 124.3 681.3 101.7 695.8 87.3C710.3 73 724.7 67 739.2 69C753.7 71 768.3 81 782.8 86.7C797.3 92.3 811.7 93.7 826.2 83.7C840.7 73.7 855.3 52.3 869.8 56C884.3 59.7 898.7 88.3 913.2 98C927.7 107.7 942.3 98.3 956.8 96.3C971.3 94.3 985.7 99.7 992.8 102.3L1000 105L1000 85L992.8 82.7C985.7 80.3 971.3 75.7 956.8 77.3C942.3 79 927.7 87 913.2 77.7C898.7 68.3 884.3 41.7 869.8 35.3C855.3 29 840.7 43 826.2 54.7C811.7 66.3 797.3 75.7 782.8 75.7C768.3 75.7 753.7 66.3 739.2 62.3C724.7 58.3 710.3 59.7 695.8 68.3C681.3 77 666.7 93 652.2 96C637.7 99 623.3 89 608.8 78C594.3 67 579.7 55 565.2 59.3C550.7 63.7 536.3 84.3 521.8 95.3C507.3 106.3 492.7 107.7 478.2 101.3C463.7 95 449.3 81 434.8 72.7C420.3 64.3 405.7 61.7 391.2 63.3C376.7 65 362.3 71 347.8 67.7C333.3 64.3 318.7 51.7 304.2 50C289.7 48.3 275.3 57.7 260.8 53.7C246.3 49.7 231.7 32.3 217.2 35.3C202.7 38.3 188.3 61.7 173.8 64.3C159.3 67 144.7 49 130.2 48.7C115.7 48.3 101.3 65.7 86.8 72C72.3 78.3 57.7 73.7 43.2 70.7C28.7 67.7 14.3 66.3 7.2 65.7L0 65Z" fill="#5f5800"></path><path d="M0 121L7.2 122.7C14.3 124.3 28.7 127.7 43.2 131.3C57.7 135 72.3 139 86.8 139C101.3 139 115.7 135 130.2 139C144.7 143 159.3 155 173.8 150.7C188.3 146.3 202.7 125.7 217.2 122C231.7 118.3 246.3 131.7 260.8 145.3C275.3 159 289.7 173 304.2 167.3C318.7 161.7 333.3 136.3 347.8 129.7C362.3 123 376.7 135 391.2 138.3C405.7 141.7 420.3 136.3 434.8 138.3C449.3 140.3 463.7 149.7 478.2 150C492.7 150.3 507.3 141.7 521.8 147C536.3 152.3 550.7 171.7 565.2 175.7C579.7 179.7 594.3 168.3 608.8 164.7C623.3 161 637.7 165 652.2 169.7C666.7 174.3 681.3 179.7 695.8 169.7C710.3 159.7 724.7 134.3 739.2 122C753.7 109.7 768.3 110.3 782.8 115.3C797.3 120.3 811.7 129.7 826.2 131.3C840.7 133 855.3 127 869.8 135C884.3 143 898.7 165 913.2 166.3C927.7 167.7 942.3 148.3 956.8 139.3C971.3 130.3 985.7 131.7 992.8 132.3L1000 133L1000 103L992.8 100.3C985.7 97.7 971.3 92.3 956.8 94.3C942.3 96.3 927.7 105.7 913.2 96C898.7 86.3 884.3 57.7 869.8 54C855.3 50.3 840.7 71.7 826.2 81.7C811.7 91.7 797.3 90.3 782.8 84.7C768.3 79 753.7 69 739.2 67C724.7 65 710.3 71 695.8 85.3C681.3 99.7 666.7 122.3 652.2 127.3C637.7 132.3 623.3 119.7 608.8 104C594.3 88.3 579.7 69.7 565.2 72.7C550.7 75.7 536.3 100.3 521.8 111C507.3 121.7 492.7 118.3 478.2 115C463.7 111.7 449.3 108.3 434.8 100C420.3 91.7 405.7 78.3 391.2 76C376.7 73.7 362.3 82.3 347.8 80C333.3 77.7 318.7 64.3 304.2 65.3C289.7 66.3 275.3 81.7 260.8 78.3C246.3 75 231.7 53 217.2 57.3C202.7 61.7 188.3 92.3 173.8 96C159.3 99.7 144.7 76.3 130.2 70.3C115.7 64.3 101.3 75.7 86.8 84.3C72.3 93 57.7 99 43.2 98.7C28.7 98.3 14.3 91.7 7.2 88.3L0 85Z" fill="#918516"></path><path d="M0 165L7.2 166.3C14.3 167.7 28.7 170.3 43.2 168.7C57.7 167 72.3 161 86.8 165.7C101.3 170.3 115.7 185.7 130.2 189C144.7 192.3 159.3 183.7 173.8 175.7C188.3 167.7 202.7 160.3 217.2 163.3C231.7 166.3 246.3 179.7 260.8 186.7C275.3 193.7 289.7 194.3 304.2 187.3C318.7 180.3 333.3 165.7 347.8 162.7C362.3 159.7 376.7 168.3 391.2 174.7C405.7 181 420.3 185 434.8 184.3C449.3 183.7 463.7 178.3 478.2 178.7C492.7 179 507.3 185 521.8 189C536.3 193 550.7 195 565.2 190.3C579.7 185.7 594.3 174.3 608.8 172C623.3 169.7 637.7 176.3 652.2 182.7C666.7 189 681.3 195 695.8 194.7C710.3 194.3 724.7 187.7 739.2 184.3C753.7 181 768.3 181 782.8 176.7C797.3 172.3 811.7 163.7 826.2 157.3C840.7 151 855.3 147 869.8 153.3C884.3 159.7 898.7 176.3 913.2 184C927.7 191.7 942.3 190.3 956.8 186.7C971.3 183 985.7 177 992.8 174L1000 171L1000 131L992.8 130.3C985.7 129.7 971.3 128.3 956.8 137.3C942.3 146.3 927.7 165.7 913.2 164.3C898.7 163 884.3 141 869.8 133C855.3 125 840.7 131 826.2 129.3C811.7 127.7 797.3 118.3 782.8 113.3C768.3 108.3 753.7 107.7 739.2 120C724.7 132.3 710.3 157.7 695.8 167.7C681.3 177.7 666.7 172.3 652.2 167.7C637.7 163 623.3 159 608.8 162.7C594.3 166.3 579.7 177.7 565.2 173.7C550.7 169.7 536.3 150.3 521.8 145C507.3 139.7 492.7 148.3 478.2 148C463.7 147.7 449.3 138.3 434.8 136.3C420.3 134.3 405.7 139.7 391.2 136.3C376.7 133 362.3 121 347.8 127.7C333.3 134.3 318.7 159.7 304.2 165.3C289.7 171 275.3 157 260.8 143.3C246.3 129.7 231.7 116.3 217.2 120C202.7 123.7 188.3 144.3 173.8 148.7C159.3 153 144.7 141 130.2 137C115.7 133 101.3 137 86.8 137C72.3 137 57.7 133 43.2 129.3C28.7 125.7 14.3 122.3 7.2 120.7L0 119Z" fill="#c6b53a"></path><path d="M0 201L7.2 201C14.3 201 28.7 201 43.2 201C57.7 201 72.3 201 86.8 201C101.3 201 115.7 201 130.2 201C144.7 201 159.3 201 173.8 201C188.3 201 202.7 201 217.2 201C231.7 201 246.3 201 260.8 201C275.3 201 289.7 201 304.2 201C318.7 201 333.3 201 347.8 201C362.3 201 376.7 201 391.2 201C405.7 201 420.3 201 434.8 201C449.3 201 463.7 201 478.2 201C492.7 201 507.3 201 521.8 201C536.3 201 550.7 201 565.2 201C579.7 201 594.3 201 608.8 201C623.3 201 637.7 201 652.2 201C666.7 201 681.3 201 695.8 201C710.3 201 724.7 201 739.2 201C753.7 201 768.3 201 782.8 201C797.3 201 811.7 201 826.2 201C840.7 201 855.3 201 869.8 201C884.3 201 898.7 201 913.2 201C927.7 201 942.3 201 956.8 201C971.3 201 985.7 201 992.8 201L1000 201L1000 169L992.8 172C985.7 175 971.3 181 956.8 184.7C942.3 188.3 927.7 189.7 913.2 182C898.7 174.3 884.3 157.7 869.8 151.3C855.3 145 840.7 149 826.2 155.3C811.7 161.7 797.3 170.3 782.8 174.7C768.3 179 753.7 179 739.2 182.3C724.7 185.7 710.3 192.3 695.8 192.7C681.3 193 666.7 187 652.2 180.7C637.7 174.3 623.3 167.7 608.8 170C594.3 172.3 579.7 183.7 565.2 188.3C550.7 193 536.3 191 521.8 187C507.3 183 492.7 177 478.2 176.7C463.7 176.3 449.3 181.7 434.8 182.3C420.3 183 405.7 179 391.2 172.7C376.7 166.3 362.3 157.7 347.8 160.7C333.3 163.7 318.7 178.3 304.2 185.3C289.7 192.3 275.3 191.7 260.8 184.7C246.3 177.7 231.7 164.3 217.2 161.3C202.7 158.3 188.3 165.7 173.8 173.7C159.3 181.7 144.7 190.3 130.2 187C115.7 183.7 101.3 168.3 86.8 163.7C72.3 159 57.7 165 43.2 166.7C28.7 168.3 14.3 165.7 7.2 164.3L0 163Z" fill="#fee75c"></path></svg>