<svg id="visual" viewBox="0 0 1000 200" width="1000" height="200" xmlns="http://www.w3.org/2000/svg" xmlns:xlink="http://www.w3.org/1999/xlink" version="1.1"><path d="M0 19L12.8 18.7C25.7 18.3 51.3 17.7 77 19.3C102.7 21 128.3 25 154 31C179.7 37 205.3 45 231 40.2C256.7 35.3 282.3 17.7 308 16.3C333.7 15 359.3 30 385 34.5C410.7 39 436.3 33 461.8 30.7C487.3 28.3 512.7 29.7 538.2 25.2C563.7 20.7 589.3 10.3 615 6.7C640.7 3 666.3 6 692 14.5C717.7 23 743.3 37 769 41.3C794.7 45.7 820.3 40.3 846 38C871.7 35.7 897.3 36.3 923 36C948.7 35.7 974.3 34.3 987.2 33.7L1000 33L1000 0L987.2 0C974.3 0 948.7 0 923 0C897.3 0 871.7 0 846 0C820.3 0 794.7 0 769 0C743.3 0 717.7 0 692 0C666.3 0 640.7 0 615 0C589.3 0 563.7 0 538.2 0C512.7 0 487.3 0 461.8 0C436.3 0 410.7 0 385 0C359.3 0 333.7 0 308 0C282.3 0 256.7 0 231 0C205.3 0 179.7 0 154 0C128.3 0 102.7 0 77 0C51.3 0 25.7 0 12.8 0L0 0Z" fill="#000000"></path><path d="M0 41L12.8 40.3C25.7 39.7 51.3 38.3 77 42.3C102.7 46.3 128.3 55.7 154 59.3C179.7 63 205.3 61 231 54.3C256.7 47.7 282.3 36.3 308 36.3C333.7 36.3 359.3 47.7 385 53C410.7 58.3 436.3 57.7 461.8 58C487.3 58.3 512.7 59.7 538.2 56.3C563.7 53 589.3 45 615 36.7C640.7 28.3 666.3 19.7 692 23.7C717.7 27.7 743.3 44.3 769 54.7C794.7 65 820.3 69 846 70C871.7 71 897.3 69 923 64C948.7 59 974.3 51 987.2 47L1000 43L1000 31L987.2 31.7C974.3 32.3 948.7 33.7 923 34C897.3 34.3 871.7 33.7 846 36C820.3 38.3 794.7 43.7 769 39.3C743.3 35 717.7 21 692 12.8C666.3 4.7 640.7 2.3 615 6C589.3 9.7 563.7 19.3 538.2 23.5C512.7 27.7 487.3 26.3 461.8 28.7C436.3 31 410.7 37 385 32.8C359.3 28.7 333.7 14.3 308 15.7C282.3 17 256.7 34 231 38.5C205.3 43 179.7 35 154 29C128.3 23 102.7 19 77 17.3C51.3 15.7 25.7 16.3 12.8 16.7L0 17Z" fill="#1a293a"></path><path d="M0 45L12.8 47.3C25.7 49.7 51.3 54.3 77 64C102.7 73.7 128.3 88.3 154 91.7C179.7 95 205.3 87 231 80C256.7 73 282.3 67 308 66.7C333.7 66.3 359.3 71.7 385 75C410.7 78.3 436.3 79.7 461.8 82.7C487.3 85.7 512.7 90.3 538.2 86.7C563.7 83 589.3 71 615 58.7C640.7 46.3 666.3 33.7 692 36C717.7 38.3 743.3 55.7 769 68C794.7 80.3 820.3 87.7 846 91C871.7 94.3 897.3 93.7 923 88.3C948.7 83 974.3 73 987.2 68L1000 63L1000 41L987.2 45C974.3 49 948.7 57 923 62C897.3 67 871.7 69 846 68C820.3 67 794.7 63 769 52.7C743.3 42.3 717.7 25.7 692 21.7C666.3 17.7 640.7 26.3 615 34.7C589.3 43 563.7 51 538.2 54.3C512.7 57.7 487.3 56.3 461.8 56C436.3 55.7 410.7 56.3 385 51C359.3 45.7 333.7 34.3 308 34.3C282.3 34.3 256.7 45.7 231 52.3C205.3 59 179.7 61 154 57.3C128.3 53.7 102.7 44.3 77 40.3C51.3 36.3 25.7 37.7 12.8 38.3L0 39Z" fill="#3e4c5f"></path><path d="M0 97L12.8 93.7C25.7 90.3 51.3 83.7 77 87C102.7 90.3 128.3 103.7 154 111.3C179.7 119 205.3 121 231 117C256.7 113 282.3 103 308 100.3C333.7 97.7 359.3 102.3 385 100.7C410.7 99 436.3 91 461.8 92.7C487.3 94.3 512.7 105.7 538.2 111C563.7 116.3 589.3 115.7 615 110.7C640.7 105.7 666.3 96.3 692 96C717.7 95.7 743.3 104.3 769 113C794.7 121.7 820.3 130.3 846 128.3C871.7 126.3 897.3 113.7 923 103.7C948.7 93.7 974.3 86.3 987.2 82.7L1000 79L1000 61L987.2 66C974.3 71 948.7 81 923 86.3C897.3 91.7 871.7 92.3 846 89C820.3 85.7 794.7 78.3 769 66C743.3 53.7 717.7 36.3 692 34C666.3 31.7 640.7 44.3 615 56.7C589.3 69 563.7 81 538.2 84.7C512.7 88.3 487.3 83.7 461.8 80.7C436.3 77.7 410.7 76.3 385 73C359.3 69.7 333.7 64.3 308 64.7C282.3 65 256.7 71 231 78C205.3 85 179.7 93 154 89.7C128.3 86.3 102.7 71.7 77 62C51.3 52.3 25.7 47.7 12.8 45.3L0 43Z" fill="#657287"></path><path d="M0 171L12.8 173.7C25.7 176.3 51.3 181.7 77 182.7C102.7 183.7 128.3 180.3 154 172.7C179.7 165 205.3 153 231 148.7C256.7 144.3 282.3 147.7 308 157C333.7 166.3 359.3 181.7 385 170.7C410.7 159.7 436.3 122.3 461.8 119.7C487.3 117 512.7 149 538.2 155.3C563.7 161.7 589.3 142.3 615 127.7C640.7 113 666.3 103 692 101.7C717.7 100.3 743.3 107.7 769 115.7C794.7 123.7 820.3 132.3 846 132.7C871.7 133 897.3 125 923 131.7C948.7 138.3 974.3 159.7 987.2 170.3L1000 181L1000 77L987.2 80.7C974.3 84.3 948.7 91.7 923 101.7C897.3 111.7 871.7 124.3 846 126.3C820.3 128.3 794.7 119.7 769 111C743.3 102.3 717.7 93.7 692 94C666.3 94.3 640.7 103.7 615 108.7C589.3 113.7 563.7 114.3 538.2 109C512.7 103.7 487.3 92.3 461.8 90.7C436.3 89 410.7 97 385 98.7C359.3 100.3 333.7 95.7 308 98.3C282.3 101 256.7 111 231 115C205.3 119 179.7 117 154 109.3C128.3 101.7 102.7 88.3 77 85C51.3 81.7 25.7 88.3 12.8 91.7L0 95Z" fill="#8d9bb1"></path><path d="M0 201L12.8 201C25.7 201 51.3 201 77 201C102.7 201 128.3 201 154 201C179.7 201 205.3 201 231 201C256.7 201 282.3 201 308 201C333.7 201 359.3 201 385 201C410.7 201 436.3 201 461.8 201C487.3 201 512.7 201 538.2 201C563.7 201 589.3 201 615 201C640.7 201 666.3 201 692 201C717.7 201 743.3 201 769 201C794.7 201 820.3 201 846 201C871.7 201 897.3 201 923 201C948.7 201 974.3 201 987.2 201L1000 201L1000 179L987.2 168.3C974.3 157.7 948.7 136.3 923 129.7C897.3 123 871.7 131 846 130.7C820.3 130.3 794.7 121.7 769 113.7C743.3 105.7 717.7 98.3 692 99.7C666.3 101 640.7 111 615 125.7C589.3 140.3 563.7 159.7 538.2 153.3C512.7 147 487.3 115 461.8 117.7C436.3 120.3 410.7 157.7 385 168.7C359.3 179.7 333.7 164.3 308 155C282.3 145.7 256.7 142.3 231 146.7C205.3 151 179.7 163 154 170.7C128.3 178.3 102.7 181.7 77 180.7C51.3 179.7 25.7 174.3 12.8 171.7L0 169Z" fill="#b8c6dd"></path></svg>