<svg id="visual" viewBox="0 0 1000 200" width="1000" height="200" xmlns="http://www.w3.org/2000/svg"
    xmlns:xlink="http://www.w3.org/1999/xlink" version="1.1">
    <path
        d="M0 33L11.2 30.7C22.3 28.3 44.7 23.7 66.8 22.7C89 21.7 111 24.3 133.2 24.7C155.3 25 177.7 23 200 20.7C222.3 18.3 244.7 15.7 266.8 15.3C289 15 311 17 333.2 17.3C355.3 17.7 377.7 16.3 400 14.7C422.3 13 444.7 11 466.8 11.3C489 11.7 511 14.3 533.2 18C555.3 21.7 577.7 26.3 600 28.3C622.3 30.3 644.7 29.7 666.8 29.7C689 29.7 711 30.3 733.2 27.7C755.3 25 777.7 19 800 18.7C822.3 18.3 844.7 23.7 866.8 25C889 26.3 911 23.7 933.2 21.3C955.3 19 977.7 17 988.8 16L1000 15L1000 0L988.8 0C977.7 0 955.3 0 933.2 0C911 0 889 0 866.8 0C844.7 0 822.3 0 800 0C777.7 0 755.3 0 733.2 0C711 0 689 0 666.8 0C644.7 0 622.3 0 600 0C577.7 0 555.3 0 533.2 0C511 0 489 0 466.8 0C444.7 0 422.3 0 400 0C377.7 0 355.3 0 333.2 0C311 0 289 0 266.8 0C244.7 0 222.3 0 200 0C177.7 0 155.3 0 133.2 0C111 0 89 0 66.8 0C44.7 0 22.3 0 11.2 0L0 0Z"
        fill="#000000"></path>
    <path
        d="M0 49L11.2 46C22.3 43 44.7 37 66.8 37C89 37 111 43 133.2 44.3C155.3 45.7 177.7 42.3 200 37.3C222.3 32.3 244.7 25.7 266.8 26.7C289 27.7 311 36.3 333.2 40C355.3 43.7 377.7 42.3 400 39.3C422.3 36.3 444.7 31.7 466.8 29C489 26.3 511 25.7 533.2 29C555.3 32.3 577.7 39.7 600 41.3C622.3 43 644.7 39 666.8 41C689 43 711 51 733.2 49C755.3 47 777.7 35 800 33.3C822.3 31.7 844.7 40.3 866.8 42.3C889 44.3 911 39.7 933.2 37.3C955.3 35 977.7 35 988.8 35L1000 35L1000 13L988.8 14C977.7 15 955.3 17 933.2 19.3C911 21.7 889 24.3 866.8 23C844.7 21.7 822.3 16.3 800 16.7C777.7 17 755.3 23 733.2 25.7C711 28.3 689 27.7 666.8 27.7C644.7 27.7 622.3 28.3 600 26.3C577.7 24.3 555.3 19.7 533.2 16C511 12.3 489 9.7 466.8 9.3C444.7 9 422.3 11 400 12.7C377.7 14.3 355.3 15.7 333.2 15.3C311 15 289 13 266.8 13.3C244.7 13.7 222.3 16.3 200 18.7C177.7 21 155.3 23 133.2 22.7C111 22.3 89 19.7 66.8 20.7C44.7 21.7 22.3 26.3 11.2 28.7L0 31Z"
        fill="#292929"></path>
    <path
        d="M0 117L11.2 114C22.3 111 44.7 105 66.8 98C89 91 111 83 133.2 77C155.3 71 177.7 67 200 63.7C222.3 60.3 244.7 57.7 266.8 64.3C289 71 311 87 333.2 93C355.3 99 377.7 95 400 93.3C422.3 91.7 444.7 92.3 466.8 89.7C489 87 511 81 533.2 86.7C555.3 92.3 577.7 109.7 600 107C622.3 104.3 644.7 81.7 666.8 73C689 64.3 711 69.7 733.2 68.7C755.3 67.7 777.7 60.3 800 60.7C822.3 61 844.7 69 866.8 76.7C889 84.3 911 91.7 933.2 92C955.3 92.3 977.7 85.7 988.8 82.3L1000 79L1000 33L988.8 33C977.7 33 955.3 33 933.2 35.3C911 37.7 889 42.3 866.8 40.3C844.7 38.3 822.3 29.7 800 31.3C777.7 33 755.3 45 733.2 47C711 49 689 41 666.8 39C644.7 37 622.3 41 600 39.3C577.7 37.7 555.3 30.3 533.2 27C511 23.7 489 24.3 466.8 27C444.7 29.7 422.3 34.3 400 37.3C377.7 40.3 355.3 41.7 333.2 38C311 34.3 289 25.7 266.8 24.7C244.7 23.7 222.3 30.3 200 35.3C177.7 40.3 155.3 43.7 133.2 42.3C111 41 89 35 66.8 35C44.7 35 22.3 41 11.2 44L0 47Z"
        fill="#4e4e4e"></path>
    <path
        d="M0 125L11.2 122.7C22.3 120.3 44.7 115.7 66.8 108.7C89 101.7 111 92.3 133.2 87.3C155.3 82.3 177.7 81.7 200 80.7C222.3 79.7 244.7 78.3 266.8 83.3C289 88.3 311 99.7 333.2 105.3C355.3 111 377.7 111 400 110.3C422.3 109.7 444.7 108.3 466.8 104.3C489 100.3 511 93.7 533.2 99C555.3 104.3 577.7 121.7 600 119.7C622.3 117.7 644.7 96.3 666.8 87.3C689 78.3 711 81.7 733.2 81C755.3 80.3 777.7 75.7 800 77.7C822.3 79.7 844.7 88.3 866.8 95.7C889 103 911 109 933.2 108.7C955.3 108.3 977.7 101.7 988.8 98.3L1000 95L1000 77L988.8 80.3C977.7 83.7 955.3 90.3 933.2 90C911 89.7 889 82.3 866.8 74.7C844.7 67 822.3 59 800 58.7C777.7 58.3 755.3 65.7 733.2 66.7C711 67.7 689 62.3 666.8 71C644.7 79.7 622.3 102.3 600 105C577.7 107.7 555.3 90.3 533.2 84.7C511 79 489 85 466.8 87.7C444.7 90.3 422.3 89.7 400 91.3C377.7 93 355.3 97 333.2 91C311 85 289 69 266.8 62.3C244.7 55.7 222.3 58.3 200 61.7C177.7 65 155.3 69 133.2 75C111 81 89 89 66.8 96C44.7 103 22.3 109 11.2 112L0 115Z"
        fill="#777777"></path>
    <path
        d="M0 163L11.2 161.3C22.3 159.7 44.7 156.3 66.8 150.7C89 145 111 137 133.2 139C155.3 141 177.7 153 200 159.3C222.3 165.7 244.7 166.3 266.8 166.3C289 166.3 311 165.7 333.2 160.7C355.3 155.7 377.7 146.3 400 144.7C422.3 143 444.7 149 466.8 150.3C489 151.7 511 148.3 533.2 150.7C555.3 153 577.7 161 600 158.3C622.3 155.7 644.7 142.3 666.8 139.3C689 136.3 711 143.7 733.2 145C755.3 146.3 777.7 141.7 800 140.7C822.3 139.7 844.7 142.3 866.8 145.3C889 148.3 911 151.7 933.2 155.3C955.3 159 977.7 163 988.8 165L1000 167L1000 93L988.8 96.3C977.7 99.7 955.3 106.3 933.2 106.7C911 107 889 101 866.8 93.7C844.7 86.3 822.3 77.7 800 75.7C777.7 73.7 755.3 78.3 733.2 79C711 79.7 689 76.3 666.8 85.3C644.7 94.3 622.3 115.7 600 117.7C577.7 119.7 555.3 102.3 533.2 97C511 91.7 489 98.3 466.8 102.3C444.7 106.3 422.3 107.7 400 108.3C377.7 109 355.3 109 333.2 103.3C311 97.7 289 86.3 266.8 81.3C244.7 76.3 222.3 77.7 200 78.7C177.7 79.7 155.3 80.3 133.2 85.3C111 90.3 89 99.7 66.8 106.7C44.7 113.7 22.3 118.3 11.2 120.7L0 123Z"
        fill="#a2a2a2"></path>
    <path
        d="M0 175L11.2 174.7C22.3 174.3 44.7 173.7 66.8 172C89 170.3 111 167.7 133.2 170C155.3 172.3 177.7 179.7 200 182.3C222.3 185 244.7 183 266.8 181.3C289 179.7 311 178.3 333.2 177C355.3 175.7 377.7 174.3 400 173C422.3 171.7 444.7 170.3 466.8 172C489 173.7 511 178.3 533.2 182.3C555.3 186.3 577.7 189.7 600 186.3C622.3 183 644.7 173 666.8 169.3C689 165.7 711 168.3 733.2 168.3C755.3 168.3 777.7 165.7 800 165.7C822.3 165.7 844.7 168.3 866.8 170C889 171.7 911 172.3 933.2 175C955.3 177.7 977.7 182.3 988.8 184.7L1000 187L1000 165L988.8 163C977.7 161 955.3 157 933.2 153.3C911 149.7 889 146.3 866.8 143.3C844.7 140.3 822.3 137.7 800 138.7C777.7 139.7 755.3 144.3 733.2 143C711 141.7 689 134.3 666.8 137.3C644.7 140.3 622.3 153.7 600 156.3C577.7 159 555.3 151 533.2 148.7C511 146.3 489 149.7 466.8 148.3C444.7 147 422.3 141 400 142.7C377.7 144.3 355.3 153.7 333.2 158.7C311 163.7 289 164.3 266.8 164.3C244.7 164.3 222.3 163.7 200 157.3C177.7 151 155.3 139 133.2 137C111 135 89 143 66.8 148.7C44.7 154.3 22.3 157.7 11.2 159.3L0 161Z"
        fill="#d0d0d0"></path>
    <path
        d="M0 201L11.2 201C22.3 201 44.7 201 66.8 201C89 201 111 201 133.2 201C155.3 201 177.7 201 200 201C222.3 201 244.7 201 266.8 201C289 201 311 201 333.2 201C355.3 201 377.7 201 400 201C422.3 201 444.7 201 466.8 201C489 201 511 201 533.2 201C555.3 201 577.7 201 600 201C622.3 201 644.7 201 666.8 201C689 201 711 201 733.2 201C755.3 201 777.7 201 800 201C822.3 201 844.7 201 866.8 201C889 201 911 201 933.2 201C955.3 201 977.7 201 988.8 201L1000 201L1000 185L988.8 182.7C977.7 180.3 955.3 175.7 933.2 173C911 170.3 889 169.7 866.8 168C844.7 166.3 822.3 163.7 800 163.7C777.7 163.7 755.3 166.3 733.2 166.3C711 166.3 689 163.7 666.8 167.3C644.7 171 622.3 181 600 184.3C577.7 187.7 555.3 184.3 533.2 180.3C511 176.3 489 171.7 466.8 170C444.7 168.3 422.3 169.7 400 171C377.7 172.3 355.3 173.7 333.2 175C311 176.3 289 177.7 266.8 179.3C244.7 181 222.3 183 200 180.3C177.7 177.7 155.3 170.3 133.2 168C111 165.7 89 168.3 66.8 170C44.7 171.7 22.3 172.3 11.2 172.7L0 173Z"
        fill="#ffffff"></path>
</svg>