<svg id="visual" viewBox="0 0 1000 200" width="1000" height="200" xmlns="http://www.w3.org/2000/svg"
    xmlns:xlink="http://www.w3.org/1999/xlink" version="1.1">
    <path
        d="M0 39L15.2 41.7C30.3 44.3 60.7 49.7 91 48C121.3 46.3 151.7 37.7 182 37.7C212.3 37.7 242.7 46.3 273 50C303.3 53.7 333.7 52.3 364 50C394.3 47.7 424.7 44.3 454.8 41C485 37.7 515 34.3 545.2 40C575.3 45.7 605.7 60.3 636 65.3C666.3 70.3 696.7 65.7 727 60.3C757.3 55 787.7 49 818 47.3C848.3 45.7 878.7 48.3 909 48.3C939.3 48.3 969.7 45.7 984.8 44.3L1000 43L1000 0L984.8 0C969.7 0 939.3 0 909 0C878.7 0 848.3 0 818 0C787.7 0 757.3 0 727 0C696.7 0 666.3 0 636 0C605.7 0 575.3 0 545.2 0C515 0 485 0 454.8 0C424.7 0 394.3 0 364 0C333.7 0 303.3 0 273 0C242.7 0 212.3 0 182 0C151.7 0 121.3 0 91 0C60.7 0 30.3 0 15.2 0L0 0Z"
        fill="#d8ff43"></path>
    <path
        d="M0 53L15.2 58.3C30.3 63.7 60.7 74.3 91 76C121.3 77.7 151.7 70.3 182 68C212.3 65.7 242.7 68.3 273 71.7C303.3 75 333.7 79 364 76.3C394.3 73.7 424.7 64.3 454.8 60.7C485 57 515 59 545.2 65.7C575.3 72.3 605.7 83.7 636 86C666.3 88.3 696.7 81.7 727 77.3C757.3 73 787.7 71 818 70C848.3 69 878.7 69 909 69C939.3 69 969.7 69 984.8 69L1000 69L1000 41L984.8 42.3C969.7 43.7 939.3 46.3 909 46.3C878.7 46.3 848.3 43.7 818 45.3C787.7 47 757.3 53 727 58.3C696.7 63.7 666.3 68.3 636 63.3C605.7 58.3 575.3 43.7 545.2 38C515 32.3 485 35.7 454.8 39C424.7 42.3 394.3 45.7 364 48C333.7 50.3 303.3 51.7 273 48C242.7 44.3 212.3 35.7 182 35.7C151.7 35.7 121.3 44.3 91 46C60.7 47.7 30.3 42.3 15.2 39.7L0 37Z"
        fill="#a7d22e"></path>
    <path
        d="M0 63L15.2 68.7C30.3 74.3 60.7 85.7 91 88C121.3 90.3 151.7 83.7 182 82C212.3 80.3 242.7 83.7 273 86.3C303.3 89 333.7 91 364 87C394.3 83 424.7 73 454.8 70.3C485 67.7 515 72.3 545.2 80.7C575.3 89 605.7 101 636 104.3C666.3 107.7 696.7 102.3 727 96.3C757.3 90.3 787.7 83.7 818 80.7C848.3 77.7 878.7 78.3 909 80.7C939.3 83 969.7 87 984.8 89L1000 91L1000 67L984.8 67C969.7 67 939.3 67 909 67C878.7 67 848.3 67 818 68C787.7 69 757.3 71 727 75.3C696.7 79.7 666.3 86.3 636 84C605.7 81.7 575.3 70.3 545.2 63.7C515 57 485 55 454.8 58.7C424.7 62.3 394.3 71.7 364 74.3C333.7 77 303.3 73 273 69.7C242.7 66.3 212.3 63.7 182 66C151.7 68.3 121.3 75.7 91 74C60.7 72.3 30.3 61.7 15.2 56.3L0 51Z"
        fill="#79a719"></path>
    <path
        d="M0 81L15.2 87.3C30.3 93.7 60.7 106.3 91 108.3C121.3 110.3 151.7 101.7 182 100.3C212.3 99 242.7 105 273 107.7C303.3 110.3 333.7 109.7 364 106C394.3 102.3 424.7 95.7 454.8 95C485 94.3 515 99.7 545.2 105.7C575.3 111.7 605.7 118.3 636 119C666.3 119.7 696.7 114.3 727 109.7C757.3 105 787.7 101 818 99C848.3 97 878.7 97 909 98.7C939.3 100.3 969.7 103.7 984.8 105.3L1000 107L1000 89L984.8 87C969.7 85 939.3 81 909 78.7C878.7 76.3 848.3 75.7 818 78.7C787.7 81.7 757.3 88.3 727 94.3C696.7 100.3 666.3 105.7 636 102.3C605.7 99 575.3 87 545.2 78.7C515 70.3 485 65.7 454.8 68.3C424.7 71 394.3 81 364 85C333.7 89 303.3 87 273 84.3C242.7 81.7 212.3 78.3 182 80C151.7 81.7 121.3 88.3 91 86C60.7 83.7 30.3 72.3 15.2 66.7L0 61Z"
        fill="#4f7d00"></path>
    <path
        d="M0 133L15.2 133.3C30.3 133.7 60.7 134.3 91 131.7C121.3 129 151.7 123 182 124C212.3 125 242.7 133 273 137.3C303.3 141.7 333.7 142.3 364 139.7C394.3 137 424.7 131 454.8 126.7C485 122.3 515 119.7 545.2 123.7C575.3 127.7 605.7 138.3 636 143C666.3 147.7 696.7 146.3 727 142.7C757.3 139 787.7 133 818 132C848.3 131 878.7 135 909 136.3C939.3 137.7 969.7 136.3 984.8 135.7L1000 135L1000 105L984.8 103.3C969.7 101.7 939.3 98.3 909 96.7C878.7 95 848.3 95 818 97C787.7 99 757.3 103 727 107.7C696.7 112.3 666.3 117.7 636 117C605.7 116.3 575.3 109.7 545.2 103.7C515 97.7 485 92.3 454.8 93C424.7 93.7 394.3 100.3 364 104C333.7 107.7 303.3 108.3 273 105.7C242.7 103 212.3 97 182 98.3C151.7 99.7 121.3 108.3 91 106.3C60.7 104.3 30.3 91.7 15.2 85.3L0 79Z"
        fill="#255600"></path>
    <path
        d="M0 145L15.2 145.3C30.3 145.7 60.7 146.3 91 144C121.3 141.7 151.7 136.3 182 137.3C212.3 138.3 242.7 145.7 273 149.7C303.3 153.7 333.7 154.3 364 153C394.3 151.7 424.7 148.3 454.8 146C485 143.7 515 142.3 545.2 147C575.3 151.7 605.7 162.3 636 167C666.3 171.7 696.7 170.3 727 164C757.3 157.7 787.7 146.3 818 144C848.3 141.7 878.7 148.3 909 151.3C939.3 154.3 969.7 153.7 984.8 153.3L1000 153L1000 133L984.8 133.7C969.7 134.3 939.3 135.7 909 134.3C878.7 133 848.3 129 818 130C787.7 131 757.3 137 727 140.7C696.7 144.3 666.3 145.7 636 141C605.7 136.3 575.3 125.7 545.2 121.7C515 117.7 485 120.3 454.8 124.7C424.7 129 394.3 135 364 137.7C333.7 140.3 303.3 139.7 273 135.3C242.7 131 212.3 123 182 122C151.7 121 121.3 127 91 129.7C60.7 132.3 30.3 131.7 15.2 131.3L0 131Z"
        fill="#0f3000"></path>
    <path
        d="M0 201L15.2 201C30.3 201 60.7 201 91 201C121.3 201 151.7 201 182 201C212.3 201 242.7 201 273 201C303.3 201 333.7 201 364 201C394.3 201 424.7 201 454.8 201C485 201 515 201 545.2 201C575.3 201 605.7 201 636 201C666.3 201 696.7 201 727 201C757.3 201 787.7 201 818 201C848.3 201 878.7 201 909 201C939.3 201 969.7 201 984.8 201L1000 201L1000 151L984.8 151.3C969.7 151.7 939.3 152.3 909 149.3C878.7 146.3 848.3 139.7 818 142C787.7 144.3 757.3 155.7 727 162C696.7 168.3 666.3 169.7 636 165C605.7 160.3 575.3 149.7 545.2 145C515 140.3 485 141.7 454.8 144C424.7 146.3 394.3 149.7 364 151C333.7 152.3 303.3 151.7 273 147.7C242.7 143.7 212.3 136.3 182 135.3C151.7 134.3 121.3 139.7 91 142C60.7 144.3 30.3 143.7 15.2 143.3L0 143Z"
        fill="#000000"></path>
</svg>