<svg id="visual" viewBox="0 0 1000 200" width="1000" height="200" xmlns="http://www.w3.org/2000/svg" xmlns:xlink="http://www.w3.org/1999/xlink" version="1.1"><path d="M0 5L12.8 9C25.7 13 51.3 21 77 21.7C102.7 22.3 128.3 15.7 154 15.7C179.7 15.7 205.3 22.3 231 24.3C256.7 26.3 282.3 23.7 308 19.3C333.7 15 359.3 9 385 6.7C410.7 4.3 436.3 5.7 461.8 7C487.3 8.3 512.7 9.7 538.2 10.3C563.7 11 589.3 11 615 10C640.7 9 666.3 7 692 6C717.7 5 743.3 5 769 4.7C794.7 4.3 820.3 3.7 846 4.3C871.7 5 897.3 7 923 7.7C948.7 8.3 974.3 7.7 987.2 7.3L1000 7L1000 0L987.2 0C974.3 0 948.7 0 923 0C897.3 0 871.7 0 846 0C820.3 0 794.7 0 769 0C743.3 0 717.7 0 692 0C666.3 0 640.7 0 615 0C589.3 0 563.7 0 538.2 0C512.7 0 487.3 0 461.8 0C436.3 0 410.7 0 385 0C359.3 0 333.7 0 308 0C282.3 0 256.7 0 231 0C205.3 0 179.7 0 154 0C128.3 0 102.7 0 77 0C51.3 0 25.7 0 12.8 0L0 0Z" fill="#b8c6dd"></path><path d="M0 103L12.8 98C25.7 93 51.3 83 77 71C102.7 59 128.3 45 154 38.3C179.7 31.7 205.3 32.3 231 46C256.7 59.7 282.3 86.3 308 99.3C333.7 112.3 359.3 111.7 385 115.7C410.7 119.7 436.3 128.3 461.8 132C487.3 135.7 512.7 134.3 538.2 114C563.7 93.7 589.3 54.3 615 44C640.7 33.7 666.3 52.3 692 52.3C717.7 52.3 743.3 33.7 769 23.7C794.7 13.7 820.3 12.3 846 13.7C871.7 15 897.3 19 923 31.7C948.7 44.3 974.3 65.7 987.2 76.3L1000 87L1000 5L987.2 5.3C974.3 5.7 948.7 6.3 923 5.7C897.3 5 871.7 3 846 2.3C820.3 1.7 794.7 2.3 769 2.7C743.3 3 717.7 3 692 4C666.3 5 640.7 7 615 8C589.3 9 563.7 9 538.2 8.3C512.7 7.7 487.3 6.3 461.8 5C436.3 3.7 410.7 2.3 385 4.7C359.3 7 333.7 13 308 17.3C282.3 21.7 256.7 24.3 231 22.3C205.3 20.3 179.7 13.7 154 13.7C128.3 13.7 102.7 20.3 77 19.7C51.3 19 25.7 11 12.8 7L0 3Z" fill="#94a8d5"></path><path d="M0 109L12.8 106.3C25.7 103.7 51.3 98.3 77 92C102.7 85.7 128.3 78.3 154 71.3C179.7 64.3 205.3 57.7 231 68C256.7 78.3 282.3 105.7 308 118C333.7 130.3 359.3 127.7 385 130.3C410.7 133 436.3 141 461.8 145.3C487.3 149.7 512.7 150.3 538.2 130C563.7 109.7 589.3 68.3 615 62.7C640.7 57 666.3 87 692 89.7C717.7 92.3 743.3 67.7 769 57.3C794.7 47 820.3 51 846 53C871.7 55 897.3 55 923 61.3C948.7 67.7 974.3 80.3 987.2 86.7L1000 93L1000 85L987.2 74.3C974.3 63.7 948.7 42.3 923 29.7C897.3 17 871.7 13 846 11.7C820.3 10.3 794.7 11.7 769 21.7C743.3 31.7 717.7 50.3 692 50.3C666.3 50.3 640.7 31.7 615 42C589.3 52.3 563.7 91.7 538.2 112C512.7 132.3 487.3 133.7 461.8 130C436.3 126.3 410.7 117.7 385 113.7C359.3 109.7 333.7 110.3 308 97.3C282.3 84.3 256.7 57.7 231 44C205.3 30.3 179.7 29.7 154 36.3C128.3 43 102.7 57 77 69C51.3 81 25.7 91 12.8 96L0 101Z" fill="#7589ca"></path><path d="M0 145L12.8 149.3C25.7 153.7 51.3 162.3 77 161C102.7 159.7 128.3 148.3 154 145.3C179.7 142.3 205.3 147.7 231 151.3C256.7 155 282.3 157 308 157C333.7 157 359.3 155 385 153.7C410.7 152.3 436.3 151.7 461.8 152.7C487.3 153.7 512.7 156.3 538.2 158.3C563.7 160.3 589.3 161.7 615 159.7C640.7 157.7 666.3 152.3 692 147.3C717.7 142.3 743.3 137.7 769 138C794.7 138.3 820.3 143.7 846 148.7C871.7 153.7 897.3 158.3 923 152.7C948.7 147 974.3 131 987.2 123L1000 115L1000 91L987.2 84.7C974.3 78.3 948.7 65.7 923 59.3C897.3 53 871.7 53 846 51C820.3 49 794.7 45 769 55.3C743.3 65.7 717.7 90.3 692 87.7C666.3 85 640.7 55 615 60.7C589.3 66.3 563.7 107.7 538.2 128C512.7 148.3 487.3 147.7 461.8 143.3C436.3 139 410.7 131 385 128.3C359.3 125.7 333.7 128.3 308 116C282.3 103.7 256.7 76.3 231 66C205.3 55.7 179.7 62.3 154 69.3C128.3 76.3 102.7 83.7 77 90C51.3 96.3 25.7 101.7 12.8 104.3L0 107Z" fill="#5e69bd"></path><path d="M0 197L12.8 192.7C25.7 188.3 51.3 179.7 77 177.3C102.7 175 128.3 179 154 176C179.7 173 205.3 163 231 161.7C256.7 160.3 282.3 167.7 308 170C333.7 172.3 359.3 169.7 385 170.7C410.7 171.7 436.3 176.3 461.8 179C487.3 181.7 512.7 182.3 538.2 182.3C563.7 182.3 589.3 181.7 615 179.3C640.7 177 666.3 173 692 170C717.7 167 743.3 165 769 164C794.7 163 820.3 163 846 164.3C871.7 165.7 897.3 168.3 923 168.7C948.7 169 974.3 167 987.2 166L1000 165L1000 113L987.2 121C974.3 129 948.7 145 923 150.7C897.3 156.3 871.7 151.7 846 146.7C820.3 141.7 794.7 136.3 769 136C743.3 135.7 717.7 140.3 692 145.3C666.3 150.3 640.7 155.7 615 157.7C589.3 159.7 563.7 158.3 538.2 156.3C512.7 154.3 487.3 151.7 461.8 150.7C436.3 149.7 410.7 150.3 385 151.7C359.3 153 333.7 155 308 155C282.3 155 256.7 153 231 149.3C205.3 145.7 179.7 140.3 154 143.3C128.3 146.3 102.7 157.7 77 159C51.3 160.3 25.7 151.7 12.8 147.3L0 143Z" fill="#4f48ac"></path><path d="M0 201L12.8 201C25.7 201 51.3 201 77 201C102.7 201 128.3 201 154 201C179.7 201 205.3 201 231 201C256.7 201 282.3 201 308 201C333.7 201 359.3 201 385 201C410.7 201 436.3 201 461.8 201C487.3 201 512.7 201 538.2 201C563.7 201 589.3 201 615 201C640.7 201 666.3 201 692 201C717.7 201 743.3 201 769 201C794.7 201 820.3 201 846 201C871.7 201 897.3 201 923 201C948.7 201 974.3 201 987.2 201L1000 201L1000 163L987.2 164C974.3 165 948.7 167 923 166.7C897.3 166.3 871.7 163.7 846 162.3C820.3 161 794.7 161 769 162C743.3 163 717.7 165 692 168C666.3 171 640.7 175 615 177.3C589.3 179.7 563.7 180.3 538.2 180.3C512.7 180.3 487.3 179.7 461.8 177C436.3 174.3 410.7 169.7 385 168.7C359.3 167.7 333.7 170.3 308 168C282.3 165.7 256.7 158.3 231 159.7C205.3 161 179.7 171 154 174C128.3 177 102.7 173 77 175.3C51.3 177.7 25.7 186.3 12.8 190.7L0 195Z" fill="#462197"></path></svg>