<svg id="visual" viewBox="0 0 1000 200" width="1000" height="200" xmlns="http://www.w3.org/2000/svg"
    xmlns:xlink="http://www.w3.org/1999/xlink" version="1.1">
    <path
        d="M0 13L11.8 15.7C23.7 18.3 47.3 23.7 71.2 24.3C95 25 119 21 142.8 18.3C166.7 15.7 190.3 14.3 214.2 14C238 13.7 262 14.3 285.8 15.7C309.7 17 333.3 19 357.2 21.3C381 23.7 405 26.3 428.8 27.3C452.7 28.3 476.3 27.7 500 27.3C523.7 27 547.3 27 571.2 27C595 27 619 27 642.8 27.3C666.7 27.7 690.3 28.3 714.2 28C738 27.7 762 26.3 785.8 24.3C809.7 22.3 833.3 19.7 857.2 20.3C881 21 905 25 928.8 27C952.7 29 976.3 29 988.2 29L1000 29L1000 0L988.2 0C976.3 0 952.7 0 928.8 0C905 0 881 0 857.2 0C833.3 0 809.7 0 785.8 0C762 0 738 0 714.2 0C690.3 0 666.7 0 642.8 0C619 0 595 0 571.2 0C547.3 0 523.7 0 500 0C476.3 0 452.7 0 428.8 0C405 0 381 0 357.2 0C333.3 0 309.7 0 285.8 0C262 0 238 0 214.2 0C190.3 0 166.7 0 142.8 0C119 0 95 0 71.2 0C47.3 0 23.7 0 11.8 0L0 0Z"
        fill="#462197"></path>
    <path
        d="M0 23L11.8 26.3C23.7 29.7 47.3 36.3 71.2 37.3C95 38.3 119 33.7 142.8 31.7C166.7 29.7 190.3 30.3 214.2 29.7C238 29 262 27 285.8 27.3C309.7 27.7 333.3 30.3 357.2 34C381 37.7 405 42.3 428.8 44.3C452.7 46.3 476.3 45.7 500 43.7C523.7 41.7 547.3 38.3 571.2 38C595 37.7 619 40.3 642.8 42.3C666.7 44.3 690.3 45.7 714.2 44.3C738 43 762 39 785.8 37C809.7 35 833.3 35 857.2 36C881 37 905 39 928.8 40.3C952.7 41.7 976.3 42.3 988.2 42.7L1000 43L1000 27L988.2 27C976.3 27 952.7 27 928.8 25C905 23 881 19 857.2 18.3C833.3 17.7 809.7 20.3 785.8 22.3C762 24.3 738 25.7 714.2 26C690.3 26.3 666.7 25.7 642.8 25.3C619 25 595 25 571.2 25C547.3 25 523.7 25 500 25.3C476.3 25.7 452.7 26.3 428.8 25.3C405 24.3 381 21.7 357.2 19.3C333.3 17 309.7 15 285.8 13.7C262 12.3 238 11.7 214.2 12C190.3 12.3 166.7 13.7 142.8 16.3C119 19 95 23 71.2 22.3C47.3 21.7 23.7 16.3 11.8 13.7L0 11Z"
        fill="#2c47b3"></path>
    <path
        d="M0 31L11.8 36.3C23.7 41.7 47.3 52.3 71.2 54.7C95 57 119 51 142.8 47.3C166.7 43.7 190.3 42.3 214.2 41.3C238 40.3 262 39.7 285.8 40C309.7 40.3 333.3 41.7 357.2 45.7C381 49.7 405 56.3 428.8 58.7C452.7 61 476.3 59 500 57.7C523.7 56.3 547.3 55.7 571.2 55.7C595 55.7 619 56.3 642.8 56.3C666.7 56.3 690.3 55.7 714.2 55C738 54.3 762 53.7 785.8 52.3C809.7 51 833.3 49 857.2 49C881 49 905 51 928.8 53C952.7 55 976.3 57 988.2 58L1000 59L1000 41L988.2 40.7C976.3 40.3 952.7 39.7 928.8 38.3C905 37 881 35 857.2 34C833.3 33 809.7 33 785.8 35C762 37 738 41 714.2 42.3C690.3 43.7 666.7 42.3 642.8 40.3C619 38.3 595 35.7 571.2 36C547.3 36.3 523.7 39.7 500 41.7C476.3 43.7 452.7 44.3 428.8 42.3C405 40.3 381 35.7 357.2 32C333.3 28.3 309.7 25.7 285.8 25.3C262 25 238 27 214.2 27.7C190.3 28.3 166.7 27.7 142.8 29.7C119 31.7 95 36.3 71.2 35.3C47.3 34.3 23.7 27.7 11.8 24.3L0 21Z"
        fill="#0067c9"></path>
    <path
        d="M0 55L11.8 59.3C23.7 63.7 47.3 72.3 71.2 73.7C95 75 119 69 142.8 65.7C166.7 62.3 190.3 61.7 214.2 61.7C238 61.7 262 62.3 285.8 61.7C309.7 61 333.3 59 357.2 61.7C381 64.3 405 71.7 428.8 74.7C452.7 77.7 476.3 76.3 500 75C523.7 73.7 547.3 72.3 571.2 73C595 73.7 619 76.3 642.8 77.3C666.7 78.3 690.3 77.7 714.2 77C738 76.3 762 75.7 785.8 74C809.7 72.3 833.3 69.7 857.2 69.7C881 69.7 905 72.3 928.8 73.7C952.7 75 976.3 75 988.2 75L1000 75L1000 57L988.2 56C976.3 55 952.7 53 928.8 51C905 49 881 47 857.2 47C833.3 47 809.7 49 785.8 50.3C762 51.7 738 52.3 714.2 53C690.3 53.7 666.7 54.3 642.8 54.3C619 54.3 595 53.7 571.2 53.7C547.3 53.7 523.7 54.3 500 55.7C476.3 57 452.7 59 428.8 56.7C405 54.3 381 47.7 357.2 43.7C333.3 39.7 309.7 38.3 285.8 38C262 37.7 238 38.3 214.2 39.3C190.3 40.3 166.7 41.7 142.8 45.3C119 49 95 55 71.2 52.7C47.3 50.3 23.7 39.7 11.8 34.3L0 29Z"
        fill="#0083d9"></path>
    <path
        d="M0 75L11.8 81.3C23.7 87.7 47.3 100.3 71.2 104.3C95 108.3 119 103.7 142.8 100.7C166.7 97.7 190.3 96.3 214.2 94.3C238 92.3 262 89.7 285.8 89C309.7 88.3 333.3 89.7 357.2 91.3C381 93 405 95 428.8 95C452.7 95 476.3 93 500 92.7C523.7 92.3 547.3 93.7 571.2 97C595 100.3 619 105.7 642.8 106C666.7 106.3 690.3 101.7 714.2 100.3C738 99 762 101 785.8 101C809.7 101 833.3 99 857.2 99.7C881 100.3 905 103.7 928.8 105C952.7 106.3 976.3 105.7 988.2 105.3L1000 105L1000 73L988.2 73C976.3 73 952.7 73 928.8 71.7C905 70.3 881 67.7 857.2 67.7C833.3 67.7 809.7 70.3 785.8 72C762 73.7 738 74.3 714.2 75C690.3 75.7 666.7 76.3 642.8 75.3C619 74.3 595 71.7 571.2 71C547.3 70.3 523.7 71.7 500 73C476.3 74.3 452.7 75.7 428.8 72.7C405 69.7 381 62.3 357.2 59.7C333.3 57 309.7 59 285.8 59.7C262 60.3 238 59.7 214.2 59.7C190.3 59.7 166.7 60.3 142.8 63.7C119 67 95 73 71.2 71.7C47.3 70.3 23.7 61.7 11.8 57.3L0 53Z"
        fill="#009fe4"></path>
    <path
        d="M0 87L11.8 93C23.7 99 47.3 111 71.2 115.7C95 120.3 119 117.7 142.8 115C166.7 112.3 190.3 109.7 214.2 107C238 104.3 262 101.7 285.8 100.7C309.7 99.7 333.3 100.3 357.2 101.3C381 102.3 405 103.7 428.8 104.3C452.7 105 476.3 105 500 105C523.7 105 547.3 105 571.2 108.7C595 112.3 619 119.7 642.8 120C666.7 120.3 690.3 113.7 714.2 111.3C738 109 762 111 785.8 111.7C809.7 112.3 833.3 111.7 857.2 112.3C881 113 905 115 928.8 116.3C952.7 117.7 976.3 118.3 988.2 118.7L1000 119L1000 103L988.2 103.3C976.3 103.7 952.7 104.3 928.8 103C905 101.7 881 98.3 857.2 97.7C833.3 97 809.7 99 785.8 99C762 99 738 97 714.2 98.3C690.3 99.7 666.7 104.3 642.8 104C619 103.7 595 98.3 571.2 95C547.3 91.7 523.7 90.3 500 90.7C476.3 91 452.7 93 428.8 93C405 93 381 91 357.2 89.3C333.3 87.7 309.7 86.3 285.8 87C262 87.7 238 90.3 214.2 92.3C190.3 94.3 166.7 95.7 142.8 98.7C119 101.7 95 106.3 71.2 102.3C47.3 98.3 23.7 85.7 11.8 79.3L0 73Z"
        fill="#00b9ed"></path>
    <path
        d="M0 101L11.8 106C23.7 111 47.3 121 71.2 125C95 129 119 127 142.8 125C166.7 123 190.3 121 214.2 118.7C238 116.3 262 113.7 285.8 112.7C309.7 111.7 333.3 112.3 357.2 112.7C381 113 405 113 428.8 114C452.7 115 476.3 117 500 118C523.7 119 547.3 119 571.2 121.7C595 124.3 619 129.7 642.8 128.7C666.7 127.7 690.3 120.3 714.2 117.7C738 115 762 117 785.8 117.7C809.7 118.3 833.3 117.7 857.2 118.3C881 119 905 121 928.8 122.3C952.7 123.7 976.3 124.3 988.2 124.7L1000 125L1000 117L988.2 116.7C976.3 116.3 952.7 115.7 928.8 114.3C905 113 881 111 857.2 110.3C833.3 109.7 809.7 110.3 785.8 109.7C762 109 738 107 714.2 109.3C690.3 111.7 666.7 118.3 642.8 118C619 117.7 595 110.3 571.2 106.7C547.3 103 523.7 103 500 103C476.3 103 452.7 103 428.8 102.3C405 101.7 381 100.3 357.2 99.3C333.3 98.3 309.7 97.7 285.8 98.7C262 99.7 238 102.3 214.2 105C190.3 107.7 166.7 110.3 142.8 113C119 115.7 95 118.3 71.2 113.7C47.3 109 23.7 97 11.8 91L0 85Z"
        fill="#00d0de"></path>
    <path
        d="M0 135L11.8 141.3C23.7 147.7 47.3 160.3 71.2 164.7C95 169 119 165 142.8 165C166.7 165 190.3 169 214.2 169.3C238 169.7 262 166.3 285.8 162.3C309.7 158.3 333.3 153.7 357.2 154C381 154.3 405 159.7 428.8 160.7C452.7 161.7 476.3 158.3 500 158.7C523.7 159 547.3 163 571.2 165C595 167 619 167 642.8 165.7C666.7 164.3 690.3 161.7 714.2 162C738 162.3 762 165.7 785.8 168.7C809.7 171.7 833.3 174.3 857.2 175C881 175.7 905 174.3 928.8 170.7C952.7 167 976.3 161 988.2 158L1000 155L1000 123L988.2 122.7C976.3 122.3 952.7 121.7 928.8 120.3C905 119 881 117 857.2 116.3C833.3 115.7 809.7 116.3 785.8 115.7C762 115 738 113 714.2 115.7C690.3 118.3 666.7 125.7 642.8 126.7C619 127.7 595 122.3 571.2 119.7C547.3 117 523.7 117 500 116C476.3 115 452.7 113 428.8 112C405 111 381 111 357.2 110.7C333.3 110.3 309.7 109.7 285.8 110.7C262 111.7 238 114.3 214.2 116.7C190.3 119 166.7 121 142.8 123C119 125 95 127 71.2 123C47.3 119 23.7 109 11.8 104L0 99Z"
        fill="#00e4b9"></path>
    <path
        d="M0 201L11.8 201C23.7 201 47.3 201 71.2 201C95 201 119 201 142.8 201C166.7 201 190.3 201 214.2 201C238 201 262 201 285.8 201C309.7 201 333.3 201 357.2 201C381 201 405 201 428.8 201C452.7 201 476.3 201 500 201C523.7 201 547.3 201 571.2 201C595 201 619 201 642.8 201C666.7 201 690.3 201 714.2 201C738 201 762 201 785.8 201C809.7 201 833.3 201 857.2 201C881 201 905 201 928.8 201C952.7 201 976.3 201 988.2 201L1000 201L1000 153L988.2 156C976.3 159 952.7 165 928.8 168.7C905 172.3 881 173.7 857.2 173C833.3 172.3 809.7 169.7 785.8 166.7C762 163.7 738 160.3 714.2 160C690.3 159.7 666.7 162.3 642.8 163.7C619 165 595 165 571.2 163C547.3 161 523.7 157 500 156.7C476.3 156.3 452.7 159.7 428.8 158.7C405 157.7 381 152.3 357.2 152C333.3 151.7 309.7 156.3 285.8 160.3C262 164.3 238 167.7 214.2 167.3C190.3 167 166.7 163 142.8 163C119 163 95 167 71.2 162.7C47.3 158.3 23.7 145.7 11.8 139.3L0 133Z"
        fill="#57f287"></path>
</svg>