<svg id="visual" viewBox="0 0 1000 200" width="1000" height="200" xmlns="http://www.w3.org/2000/svg"
    xmlns:xlink="http://www.w3.org/1999/xlink" version="1.1">
    <path
        d="M0 45L9.3 49C18.7 53 37.3 61 55.8 58.3C74.3 55.7 92.7 42.3 111.2 34.3C129.7 26.3 148.3 23.7 166.8 23C185.3 22.3 203.7 23.7 222.2 30.7C240.7 37.7 259.3 50.3 277.8 52C296.3 53.7 314.7 44.3 333.2 39.7C351.7 35 370.3 35 388.8 34.3C407.3 33.7 425.7 32.3 444.2 31.3C462.7 30.3 481.3 29.7 500 34C518.7 38.3 537.3 47.7 555.8 46.7C574.3 45.7 592.7 34.3 611.2 31.3C629.7 28.3 648.3 33.7 666.8 42C685.3 50.3 703.7 61.7 722.2 65.3C740.7 69 759.3 65 777.8 63.7C796.3 62.3 814.7 63.7 833.2 59C851.7 54.3 870.3 43.7 888.8 38.7C907.3 33.7 925.7 34.3 944.2 44.3C962.7 54.3 981.3 73.7 990.7 83.3L1000 93L1000 0L990.7 0C981.3 0 962.7 0 944.2 0C925.7 0 907.3 0 888.8 0C870.3 0 851.7 0 833.2 0C814.7 0 796.3 0 777.8 0C759.3 0 740.7 0 722.2 0C703.7 0 685.3 0 666.8 0C648.3 0 629.7 0 611.2 0C592.7 0 574.3 0 555.8 0C537.3 0 518.7 0 500 0C481.3 0 462.7 0 444.2 0C425.7 0 407.3 0 388.8 0C370.3 0 351.7 0 333.2 0C314.7 0 296.3 0 277.8 0C259.3 0 240.7 0 222.2 0C203.7 0 185.3 0 166.8 0C148.3 0 129.7 0 111.2 0C92.7 0 74.3 0 55.8 0C37.3 0 18.7 0 9.3 0L0 0Z"
        fill="#462197"></path>
    <path
        d="M0 53L9.3 59.7C18.7 66.3 37.3 79.7 55.8 77C74.3 74.3 92.7 55.7 111.2 47.7C129.7 39.7 148.3 42.3 166.8 41.7C185.3 41 203.7 37 222.2 43.3C240.7 49.7 259.3 66.3 277.8 69.3C296.3 72.3 314.7 61.7 333.2 56.3C351.7 51 370.3 51 388.8 49.7C407.3 48.3 425.7 45.7 444.2 45C462.7 44.3 481.3 45.7 500 50C518.7 54.3 537.3 61.7 555.8 62C574.3 62.3 592.7 55.7 611.2 55.3C629.7 55 648.3 61 666.8 66.3C685.3 71.7 703.7 76.3 722.2 77.3C740.7 78.3 759.3 75.7 777.8 77.3C796.3 79 814.7 85 833.2 80C851.7 75 870.3 59 888.8 50.7C907.3 42.3 925.7 41.7 944.2 51.7C962.7 61.7 981.3 82.3 990.7 92.7L1000 103L1000 91L990.7 81.3C981.3 71.7 962.7 52.3 944.2 42.3C925.7 32.3 907.3 31.7 888.8 36.7C870.3 41.7 851.7 52.3 833.2 57C814.7 61.7 796.3 60.3 777.8 61.7C759.3 63 740.7 67 722.2 63.3C703.7 59.7 685.3 48.3 666.8 40C648.3 31.7 629.7 26.3 611.2 29.3C592.7 32.3 574.3 43.7 555.8 44.7C537.3 45.7 518.7 36.3 500 32C481.3 27.7 462.7 28.3 444.2 29.3C425.7 30.3 407.3 31.7 388.8 32.3C370.3 33 351.7 33 333.2 37.7C314.7 42.3 296.3 51.7 277.8 50C259.3 48.3 240.7 35.7 222.2 28.7C203.7 21.7 185.3 20.3 166.8 21C148.3 21.7 129.7 24.3 111.2 32.3C92.7 40.3 74.3 53.7 55.8 56.3C37.3 59 18.7 51 9.3 47L0 43Z"
        fill="#2052bb"></path>
    <path
        d="M0 101L9.3 106C18.7 111 37.3 121 55.8 118.3C74.3 115.7 92.7 100.3 111.2 97.7C129.7 95 148.3 105 166.8 108C185.3 111 203.7 107 222.2 104.3C240.7 101.7 259.3 100.3 277.8 104.3C296.3 108.3 314.7 117.7 333.2 120C351.7 122.3 370.3 117.7 388.8 113C407.3 108.3 425.7 103.7 444.2 104C462.7 104.3 481.3 109.7 500 112C518.7 114.3 537.3 113.7 555.8 115.3C574.3 117 592.7 121 611.2 120.3C629.7 119.7 648.3 114.3 666.8 111.7C685.3 109 703.7 109 722.2 110.3C740.7 111.7 759.3 114.3 777.8 114C796.3 113.7 814.7 110.3 833.2 109.7C851.7 109 870.3 111 888.8 109.7C907.3 108.3 925.7 103.7 944.2 106.7C962.7 109.7 981.3 120.3 990.7 125.7L1000 131L1000 101L990.7 90.7C981.3 80.3 962.7 59.7 944.2 49.7C925.7 39.7 907.3 40.3 888.8 48.7C870.3 57 851.7 73 833.2 78C814.7 83 796.3 77 777.8 75.3C759.3 73.7 740.7 76.3 722.2 75.3C703.7 74.3 685.3 69.7 666.8 64.3C648.3 59 629.7 53 611.2 53.3C592.7 53.7 574.3 60.3 555.8 60C537.3 59.7 518.7 52.3 500 48C481.3 43.7 462.7 42.3 444.2 43C425.7 43.7 407.3 46.3 388.8 47.7C370.3 49 351.7 49 333.2 54.3C314.7 59.7 296.3 70.3 277.8 67.3C259.3 64.3 240.7 47.7 222.2 41.3C203.7 35 185.3 39 166.8 39.7C148.3 40.3 129.7 37.7 111.2 45.7C92.7 53.7 74.3 72.3 55.8 75C37.3 77.7 18.7 64.3 9.3 57.7L0 51Z"
        fill="#007ad4"></path>
    <path
        d="M0 115L9.3 121.7C18.7 128.3 37.3 141.7 55.8 140.7C74.3 139.7 92.7 124.3 111.2 119.7C129.7 115 148.3 121 166.8 122.3C185.3 123.7 203.7 120.3 222.2 116.7C240.7 113 259.3 109 277.8 112.7C296.3 116.3 314.7 127.7 333.2 132.7C351.7 137.7 370.3 136.3 388.8 131.3C407.3 126.3 425.7 117.7 444.2 116.3C462.7 115 481.3 121 500 125.3C518.7 129.7 537.3 132.3 555.8 135.7C574.3 139 592.7 143 611.2 140.7C629.7 138.3 648.3 129.7 666.8 125.7C685.3 121.7 703.7 122.3 722.2 125C740.7 127.7 759.3 132.3 777.8 133C796.3 133.7 814.7 130.3 833.2 128.3C851.7 126.3 870.3 125.7 888.8 123C907.3 120.3 925.7 115.7 944.2 117.7C962.7 119.7 981.3 128.3 990.7 132.7L1000 137L1000 129L990.7 123.7C981.3 118.3 962.7 107.7 944.2 104.7C925.7 101.7 907.3 106.3 888.8 107.7C870.3 109 851.7 107 833.2 107.7C814.7 108.3 796.3 111.7 777.8 112C759.3 112.3 740.7 109.7 722.2 108.3C703.7 107 685.3 107 666.8 109.7C648.3 112.3 629.7 117.7 611.2 118.3C592.7 119 574.3 115 555.8 113.3C537.3 111.7 518.7 112.3 500 110C481.3 107.7 462.7 102.3 444.2 102C425.7 101.7 407.3 106.3 388.8 111C370.3 115.7 351.7 120.3 333.2 118C314.7 115.7 296.3 106.3 277.8 102.3C259.3 98.3 240.7 99.7 222.2 102.3C203.7 105 185.3 109 166.8 106C148.3 103 129.7 93 111.2 95.7C92.7 98.3 74.3 113.7 55.8 116.3C37.3 119 18.7 109 9.3 104L0 99Z"
        fill="#009fe4"></path>
    <path
        d="M0 167L9.3 167.7C18.7 168.3 37.3 169.7 55.8 167C74.3 164.3 92.7 157.7 111.2 159.3C129.7 161 148.3 171 166.8 169.3C185.3 167.7 203.7 154.3 222.2 146.7C240.7 139 259.3 137 277.8 143.3C296.3 149.7 314.7 164.3 333.2 166.3C351.7 168.3 370.3 157.7 388.8 153.3C407.3 149 425.7 151 444.2 152C462.7 153 481.3 153 500 153C518.7 153 537.3 153 555.8 153.7C574.3 154.3 592.7 155.7 611.2 156.3C629.7 157 648.3 157 666.8 157.3C685.3 157.7 703.7 158.3 722.2 157.7C740.7 157 759.3 155 777.8 155.7C796.3 156.3 814.7 159.7 833.2 161.3C851.7 163 870.3 163 888.8 159.7C907.3 156.3 925.7 149.7 944.2 148.3C962.7 147 981.3 151 990.7 153L1000 155L1000 135L990.7 130.7C981.3 126.3 962.7 117.7 944.2 115.7C925.7 113.7 907.3 118.3 888.8 121C870.3 123.7 851.7 124.3 833.2 126.3C814.7 128.3 796.3 131.7 777.8 131C759.3 130.3 740.7 125.7 722.2 123C703.7 120.3 685.3 119.7 666.8 123.7C648.3 127.7 629.7 136.3 611.2 138.7C592.7 141 574.3 137 555.8 133.7C537.3 130.3 518.7 127.7 500 123.3C481.3 119 462.7 113 444.2 114.3C425.7 115.7 407.3 124.3 388.8 129.3C370.3 134.3 351.7 135.7 333.2 130.7C314.7 125.7 296.3 114.3 277.8 110.7C259.3 107 240.7 111 222.2 114.7C203.7 118.3 185.3 121.7 166.8 120.3C148.3 119 129.7 113 111.2 117.7C92.7 122.3 74.3 137.7 55.8 138.7C37.3 139.7 18.7 126.3 9.3 119.7L0 113Z"
        fill="#00c1eb"></path>
    <path
        d="M0 183L9.3 184C18.7 185 37.3 187 55.8 184.3C74.3 181.7 92.7 174.3 111.2 174.3C129.7 174.3 148.3 181.7 166.8 181.3C185.3 181 203.7 173 222.2 169C240.7 165 259.3 165 277.8 169.3C296.3 173.7 314.7 182.3 333.2 183.3C351.7 184.3 370.3 177.7 388.8 174C407.3 170.3 425.7 169.7 444.2 168.7C462.7 167.7 481.3 166.3 500 166.3C518.7 166.3 537.3 167.7 555.8 168C574.3 168.3 592.7 167.7 611.2 168C629.7 168.3 648.3 169.7 666.8 172.7C685.3 175.7 703.7 180.3 722.2 181.3C740.7 182.3 759.3 179.7 777.8 177.3C796.3 175 814.7 173 833.2 172.7C851.7 172.3 870.3 173.7 888.8 171.7C907.3 169.7 925.7 164.3 944.2 163C962.7 161.7 981.3 164.3 990.7 165.7L1000 167L1000 153L990.7 151C981.3 149 962.7 145 944.2 146.3C925.7 147.7 907.3 154.3 888.8 157.7C870.3 161 851.7 161 833.2 159.3C814.7 157.7 796.3 154.3 777.8 153.7C759.3 153 740.7 155 722.2 155.7C703.7 156.3 685.3 155.7 666.8 155.3C648.3 155 629.7 155 611.2 154.3C592.7 153.7 574.3 152.3 555.8 151.7C537.3 151 518.7 151 500 151C481.3 151 462.7 151 444.2 150C425.7 149 407.3 147 388.8 151.3C370.3 155.7 351.7 166.3 333.2 164.3C314.7 162.3 296.3 147.7 277.8 141.3C259.3 135 240.7 137 222.2 144.7C203.7 152.3 185.3 165.7 166.8 167.3C148.3 169 129.7 159 111.2 157.3C92.7 155.7 74.3 162.3 55.8 165C37.3 167.7 18.7 166.3 9.3 165.7L0 165Z"
        fill="#00dec7"></path>
    <path
        d="M0 201L9.3 201C18.7 201 37.3 201 55.8 201C74.3 201 92.7 201 111.2 201C129.7 201 148.3 201 166.8 201C185.3 201 203.7 201 222.2 201C240.7 201 259.3 201 277.8 201C296.3 201 314.7 201 333.2 201C351.7 201 370.3 201 388.8 201C407.3 201 425.7 201 444.2 201C462.7 201 481.3 201 500 201C518.7 201 537.3 201 555.8 201C574.3 201 592.7 201 611.2 201C629.7 201 648.3 201 666.8 201C685.3 201 703.7 201 722.2 201C740.7 201 759.3 201 777.8 201C796.3 201 814.7 201 833.2 201C851.7 201 870.3 201 888.8 201C907.3 201 925.7 201 944.2 201C962.7 201 981.3 201 990.7 201L1000 201L1000 165L990.7 163.7C981.3 162.3 962.7 159.7 944.2 161C925.7 162.3 907.3 167.7 888.8 169.7C870.3 171.7 851.7 170.3 833.2 170.7C814.7 171 796.3 173 777.8 175.3C759.3 177.7 740.7 180.3 722.2 179.3C703.7 178.3 685.3 173.7 666.8 170.7C648.3 167.7 629.7 166.3 611.2 166C592.7 165.7 574.3 166.3 555.8 166C537.3 165.7 518.7 164.3 500 164.3C481.3 164.3 462.7 165.7 444.2 166.7C425.7 167.7 407.3 168.3 388.8 172C370.3 175.7 351.7 182.3 333.2 181.3C314.7 180.3 296.3 171.7 277.8 167.3C259.3 163 240.7 163 222.2 167C203.7 171 185.3 179 166.8 179.3C148.3 179.7 129.7 172.3 111.2 172.3C92.7 172.3 74.3 179.7 55.8 182.3C37.3 185 18.7 183 9.3 182L0 181Z"
        fill="#57f287"></path>
</svg>