<svg id="visual" viewBox="0 0 1000 200" width="1000" height="200" xmlns="http://www.w3.org/2000/svg" xmlns:xlink="http://www.w3.org/1999/xlink" version="1.1"><path d="M0 41L12.8 43C25.7 45 51.3 49 77 43.7C102.7 38.3 128.3 23.7 154 22.3C179.7 21 205.3 33 231 45C256.7 57 282.3 69 308 67.3C333.7 65.7 359.3 50.3 385 43C410.7 35.7 436.3 36.3 461.8 47.3C487.3 58.3 512.7 79.7 538.2 89C563.7 98.3 589.3 95.7 615 89C640.7 82.3 666.3 71.7 692 60.7C717.7 49.7 743.3 38.3 769 30.3C794.7 22.3 820.3 17.7 846 28.3C871.7 39 897.3 65 923 75C948.7 85 974.3 79 987.2 76L1000 73L1000 0L987.2 0C974.3 0 948.7 0 923 0C897.3 0 871.7 0 846 0C820.3 0 794.7 0 769 0C743.3 0 717.7 0 692 0C666.3 0 640.7 0 615 0C589.3 0 563.7 0 538.2 0C512.7 0 487.3 0 461.8 0C436.3 0 410.7 0 385 0C359.3 0 333.7 0 308 0C282.3 0 256.7 0 231 0C205.3 0 179.7 0 154 0C128.3 0 102.7 0 77 0C51.3 0 25.7 0 12.8 0L0 0Z" fill="#f2330d"></path><path d="M0 85L12.8 85C25.7 85 51.3 85 77 92.3C102.7 99.7 128.3 114.3 154 110.3C179.7 106.3 205.3 83.7 231 79C256.7 74.3 282.3 87.7 308 97.3C333.7 107 359.3 113 385 110.7C410.7 108.3 436.3 97.7 461.8 102C487.3 106.3 512.7 125.7 538.2 129.3C563.7 133 589.3 121 615 117.7C640.7 114.3 666.3 119.7 692 113.7C717.7 107.7 743.3 90.3 769 82.7C794.7 75 820.3 77 846 82.3C871.7 87.7 897.3 96.3 923 101.3C948.7 106.3 974.3 107.7 987.2 108.3L1000 109L1000 71L987.2 74C974.3 77 948.7 83 923 73C897.3 63 871.7 37 846 26.3C820.3 15.7 794.7 20.3 769 28.3C743.3 36.3 717.7 47.7 692 58.7C666.3 69.7 640.7 80.3 615 87C589.3 93.7 563.7 96.3 538.2 87C512.7 77.7 487.3 56.3 461.8 45.3C436.3 34.3 410.7 33.7 385 41C359.3 48.3 333.7 63.7 308 65.3C282.3 67 256.7 55 231 43C205.3 31 179.7 19 154 20.3C128.3 21.7 102.7 36.3 77 41.7C51.3 47 25.7 43 12.8 41L0 39Z" fill="#f66a00"></path><path d="M0 87L12.8 92C25.7 97 51.3 107 77 117.7C102.7 128.3 128.3 139.7 154 132.3C179.7 125 205.3 99 231 96C256.7 93 282.3 113 308 120.7C333.7 128.3 359.3 123.7 385 116.7C410.7 109.7 436.3 100.3 461.8 107C487.3 113.7 512.7 136.3 538.2 141.7C563.7 147 589.3 135 615 133C640.7 131 666.3 139 692 136C717.7 133 743.3 119 769 112C794.7 105 820.3 105 846 109C871.7 113 897.3 121 923 127.3C948.7 133.7 974.3 138.3 987.2 140.7L1000 143L1000 107L987.2 106.3C974.3 105.7 948.7 104.3 923 99.3C897.3 94.3 871.7 85.7 846 80.3C820.3 75 794.7 73 769 80.7C743.3 88.3 717.7 105.7 692 111.7C666.3 117.7 640.7 112.3 615 115.7C589.3 119 563.7 131 538.2 127.3C512.7 123.7 487.3 104.3 461.8 100C436.3 95.7 410.7 106.3 385 108.7C359.3 111 333.7 105 308 95.3C282.3 85.7 256.7 72.3 231 77C205.3 81.7 179.7 104.3 154 108.3C128.3 112.3 102.7 97.7 77 90.3C51.3 83 25.7 83 12.8 83L0 83Z" fill="#f69300"></path><path d="M0 91L12.8 95.7C25.7 100.3 51.3 109.7 77 121.3C102.7 133 128.3 147 154 144.3C179.7 141.7 205.3 122.3 231 119C256.7 115.7 282.3 128.3 308 132C333.7 135.7 359.3 130.3 385 126.7C410.7 123 436.3 121 461.8 129.3C487.3 137.7 512.7 156.3 538.2 160.3C563.7 164.3 589.3 153.7 615 153C640.7 152.3 666.3 161.7 692 157.7C717.7 153.7 743.3 136.3 769 129C794.7 121.7 820.3 124.3 846 132C871.7 139.7 897.3 152.3 923 160C948.7 167.7 974.3 170.3 987.2 171.7L1000 173L1000 141L987.2 138.7C974.3 136.3 948.7 131.7 923 125.3C897.3 119 871.7 111 846 107C820.3 103 794.7 103 769 110C743.3 117 717.7 131 692 134C666.3 137 640.7 129 615 131C589.3 133 563.7 145 538.2 139.7C512.7 134.3 487.3 111.7 461.8 105C436.3 98.3 410.7 107.7 385 114.7C359.3 121.7 333.7 126.3 308 118.7C282.3 111 256.7 91 231 94C205.3 97 179.7 123 154 130.3C128.3 137.7 102.7 126.3 77 115.7C51.3 105 25.7 95 12.8 90L0 85Z" fill="#f3b800"></path><path d="M0 153L12.8 151.7C25.7 150.3 51.3 147.7 77 153.7C102.7 159.7 128.3 174.3 154 174.3C179.7 174.3 205.3 159.7 231 160C256.7 160.3 282.3 175.7 308 173.7C333.7 171.7 359.3 152.3 385 143C410.7 133.7 436.3 134.3 461.8 141.7C487.3 149 512.7 163 538.2 170.3C563.7 177.7 589.3 178.3 615 180C640.7 181.7 666.3 184.3 692 180.7C717.7 177 743.3 167 769 157.3C794.7 147.7 820.3 138.3 846 141C871.7 143.7 897.3 158.3 923 166.7C948.7 175 974.3 177 987.2 178L1000 179L1000 171L987.2 169.7C974.3 168.3 948.7 165.7 923 158C897.3 150.3 871.7 137.7 846 130C820.3 122.3 794.7 119.7 769 127C743.3 134.3 717.7 151.7 692 155.7C666.3 159.7 640.7 150.3 615 151C589.3 151.7 563.7 162.3 538.2 158.3C512.7 154.3 487.3 135.7 461.8 127.3C436.3 119 410.7 121 385 124.7C359.3 128.3 333.7 133.7 308 130C282.3 126.3 256.7 113.7 231 117C205.3 120.3 179.7 139.7 154 142.3C128.3 145 102.7 131 77 119.3C51.3 107.7 25.7 98.3 12.8 93.7L0 89Z" fill="#eadc18"></path><path d="M0 201L12.8 201C25.7 201 51.3 201 77 201C102.7 201 128.3 201 154 201C179.7 201 205.3 201 231 201C256.7 201 282.3 201 308 201C333.7 201 359.3 201 385 201C410.7 201 436.3 201 461.8 201C487.3 201 512.7 201 538.2 201C563.7 201 589.3 201 615 201C640.7 201 666.3 201 692 201C717.7 201 743.3 201 769 201C794.7 201 820.3 201 846 201C871.7 201 897.3 201 923 201C948.7 201 974.3 201 987.2 201L1000 201L1000 177L987.2 176C974.3 175 948.7 173 923 164.7C897.3 156.3 871.7 141.7 846 139C820.3 136.3 794.7 145.7 769 155.3C743.3 165 717.7 175 692 178.7C666.3 182.3 640.7 179.7 615 178C589.3 176.3 563.7 175.7 538.2 168.3C512.7 161 487.3 147 461.8 139.7C436.3 132.3 410.7 131.7 385 141C359.3 150.3 333.7 169.7 308 171.7C282.3 173.7 256.7 158.3 231 158C205.3 157.7 179.7 172.3 154 172.3C128.3 172.3 102.7 157.7 77 151.7C51.3 145.7 25.7 148.3 12.8 149.7L0 151Z" fill="#d8ff43"></path></svg>