<svg id="visual" viewBox="0 0 1000 200" width="1000" height="200" xmlns="http://www.w3.org/2000/svg" xmlns:xlink="http://www.w3.org/1999/xlink" version="1.1"><rect x="0" y="0" width="1000" height="200" fill="#fff"></rect><path d="M0 164L10.5 165.8C21 167.7 42 171.3 62.8 170.2C83.7 169 104.3 163 125.2 162C146 161 167 165 187.8 163.8C208.7 162.7 229.3 156.3 250.2 155C271 153.7 292 157.3 312.8 161C333.7 164.7 354.3 168.3 375.2 169C396 169.7 417 167.3 437.8 165.8C458.7 164.3 479.3 163.7 500.2 163.3C521 163 542 163 562.8 165.7C583.7 168.3 604.3 173.7 625.2 174.7C646 175.7 667 172.3 687.8 171.5C708.7 170.7 729.3 172.3 750.2 168.8C771 165.3 792 156.7 812.8 155.3C833.7 154 854.3 160 875.2 161.5C896 163 917 160 937.8 157.8C958.7 155.7 979.3 154.3 989.7 153.7L1000 153L1000 0L989.7 0C979.3 0 958.7 0 937.8 0C917 0 896 0 875.2 0C854.3 0 833.7 0 812.8 0C792 0 771 0 750.2 0C729.3 0 708.7 0 687.8 0C667 0 646 0 625.2 0C604.3 0 583.7 0 562.8 0C542 0 521 0 500.2 0C479.3 0 458.7 0 437.8 0C417 0 396 0 375.2 0C354.3 0 333.7 0 312.8 0C292 0 271 0 250.2 0C229.3 0 208.7 0 187.8 0C167 0 146 0 125.2 0C104.3 0 83.7 0 62.8 0C42 0 21 0 10.5 0L0 0Z" fill="#5865f2"></path><path d="M0 134L10.5 135.7C21 137.3 42 140.7 62.8 144.5C83.7 148.3 104.3 152.7 125.2 155.8C146 159 167 161 187.8 161.5C208.7 162 229.3 161 250.2 158C271 155 292 150 312.8 147.2C333.7 144.3 354.3 143.7 375.2 145.7C396 147.7 417 152.3 437.8 152.3C458.7 152.3 479.3 147.7 500.2 146.2C521 144.7 542 146.3 562.8 144.5C583.7 142.7 604.3 137.3 625.2 139.5C646 141.7 667 151.3 687.8 156.7C708.7 162 729.3 163 750.2 159.2C771 155.3 792 146.7 812.8 144.5C833.7 142.3 854.3 146.7 875.2 149.7C896 152.7 917 154.3 937.8 153.2C958.7 152 979.3 148 989.7 146L1000 144L1000 0L989.7 0C979.3 0 958.7 0 937.8 0C917 0 896 0 875.2 0C854.3 0 833.7 0 812.8 0C792 0 771 0 750.2 0C729.3 0 708.7 0 687.8 0C667 0 646 0 625.2 0C604.3 0 583.7 0 562.8 0C542 0 521 0 500.2 0C479.3 0 458.7 0 437.8 0C417 0 396 0 375.2 0C354.3 0 333.7 0 312.8 0C292 0 271 0 250.2 0C229.3 0 208.7 0 187.8 0C167 0 146 0 125.2 0C104.3 0 83.7 0 62.8 0C42 0 21 0 10.5 0L0 0Z" fill="#a55ade"></path><path d="M0 140L10.5 138.3C21 136.7 42 133.3 62.8 132.7C83.7 132 104.3 134 125.2 136.2C146 138.3 167 140.7 187.8 141.3C208.7 142 229.3 141 250.2 138.2C271 135.3 292 130.7 312.8 130.8C333.7 131 354.3 136 375.2 139C396 142 417 143 437.8 143.3C458.7 143.7 479.3 143.3 500.2 143.7C521 144 542 145 562.8 144.3C583.7 143.7 604.3 141.3 625.2 141.5C646 141.7 667 144.3 687.8 144.5C708.7 144.7 729.3 142.3 750.2 140.8C771 139.3 792 138.7 812.8 138.7C833.7 138.7 854.3 139.3 875.2 140.2C896 141 917 142 937.8 138.5C958.7 135 979.3 127 989.7 123L1000 119L1000 0L989.7 0C979.3 0 958.7 0 937.8 0C917 0 896 0 875.2 0C854.3 0 833.7 0 812.8 0C792 0 771 0 750.2 0C729.3 0 708.7 0 687.8 0C667 0 646 0 625.2 0C604.3 0 583.7 0 562.8 0C542 0 521 0 500.2 0C479.3 0 458.7 0 437.8 0C417 0 396 0 375.2 0C354.3 0 333.7 0 312.8 0C292 0 271 0 250.2 0C229.3 0 208.7 0 187.8 0C167 0 146 0 125.2 0C104.3 0 83.7 0 62.8 0C42 0 21 0 10.5 0L0 0Z" fill="#d153c5"></path><path d="M0 102L10.5 106C21 110 42 118 62.8 118C83.7 118 104.3 110 125.2 106.7C146 103.3 167 104.7 187.8 104.7C208.7 104.7 229.3 103.3 250.2 105C271 106.7 292 111.3 312.8 115.3C333.7 119.3 354.3 122.7 375.2 123.7C396 124.7 417 123.3 437.8 123.3C458.7 123.3 479.3 124.7 500.2 124.8C521 125 542 124 562.8 123.7C583.7 123.3 604.3 123.7 625.2 122.3C646 121 667 118 687.8 118.2C708.7 118.3 729.3 121.7 750.2 123.5C771 125.3 792 125.7 812.8 121.8C833.7 118 854.3 110 875.2 110.2C896 110.3 917 118.7 937.8 119.3C958.7 120 979.3 113 989.7 109.5L1000 106L1000 0L989.7 0C979.3 0 958.7 0 937.8 0C917 0 896 0 875.2 0C854.3 0 833.7 0 812.8 0C792 0 771 0 750.2 0C729.3 0 708.7 0 687.8 0C667 0 646 0 625.2 0C604.3 0 583.7 0 562.8 0C542 0 521 0 500.2 0C479.3 0 458.7 0 437.8 0C417 0 396 0 375.2 0C354.3 0 333.7 0 312.8 0C292 0 271 0 250.2 0C229.3 0 208.7 0 187.8 0C167 0 146 0 125.2 0C104.3 0 83.7 0 62.8 0C42 0 21 0 10.5 0L0 0Z" fill="#ec54ab"></path><path d="M0 89L10.5 89.3C21 89.7 42 90.3 62.8 90.3C83.7 90.3 104.3 89.7 125.2 89.7C146 89.7 167 90.3 187.8 94C208.7 97.7 229.3 104.3 250.2 105.8C271 107.3 292 103.7 312.8 101C333.7 98.3 354.3 96.7 375.2 98C396 99.3 417 103.7 437.8 105C458.7 106.3 479.3 104.7 500.2 102.3C521 100 542 97 562.8 97.8C583.7 98.7 604.3 103.3 625.2 106.2C646 109 667 110 687.8 108.2C708.7 106.3 729.3 101.7 750.2 99.2C771 96.7 792 96.3 812.8 97.8C833.7 99.3 854.3 102.7 875.2 104.5C896 106.3 917 106.7 937.8 107.7C958.7 108.7 979.3 110.3 989.7 111.2L1000 112L1000 0L989.7 0C979.3 0 958.7 0 937.8 0C917 0 896 0 875.2 0C854.3 0 833.7 0 812.8 0C792 0 771 0 750.2 0C729.3 0 708.7 0 687.8 0C667 0 646 0 625.2 0C604.3 0 583.7 0 562.8 0C542 0 521 0 500.2 0C479.3 0 458.7 0 437.8 0C417 0 396 0 375.2 0C354.3 0 333.7 0 312.8 0C292 0 271 0 250.2 0C229.3 0 208.7 0 187.8 0C167 0 146 0 125.2 0C104.3 0 83.7 0 62.8 0C42 0 21 0 10.5 0L0 0Z" fill="#fb6093"></path><path d="M0 93L10.5 89.2C21 85.3 42 77.7 62.8 77C83.7 76.3 104.3 82.7 125.2 86.5C146 90.3 167 91.7 187.8 88.8C208.7 86 229.3 79 250.2 78.5C271 78 292 84 312.8 86C333.7 88 354.3 86 375.2 86.8C396 87.7 417 91.3 437.8 91.8C458.7 92.3 479.3 89.7 500.2 86C521 82.3 542 77.7 562.8 76.8C583.7 76 604.3 79 625.2 79.2C646 79.3 667 76.7 687.8 77C708.7 77.3 729.3 80.7 750.2 80.5C771 80.3 792 76.7 812.8 76.8C833.7 77 854.3 81 875.2 82.8C896 84.7 917 84.3 937.8 82.2C958.7 80 979.3 76 989.7 74L1000 72L1000 0L989.7 0C979.3 0 958.7 0 937.8 0C917 0 896 0 875.2 0C854.3 0 833.7 0 812.8 0C792 0 771 0 750.2 0C729.3 0 708.7 0 687.8 0C667 0 646 0 625.2 0C604.3 0 583.7 0 562.8 0C542 0 521 0 500.2 0C479.3 0 458.7 0 437.8 0C417 0 396 0 375.2 0C354.3 0 333.7 0 312.8 0C292 0 271 0 250.2 0C229.3 0 208.7 0 187.8 0C167 0 146 0 125.2 0C104.3 0 83.7 0 62.8 0C42 0 21 0 10.5 0L0 0Z" fill="#ff727e"></path><path d="M0 59L10.5 61.3C21 63.7 42 68.3 62.8 68.5C83.7 68.7 104.3 64.3 125.2 62.3C146 60.3 167 60.7 187.8 61.2C208.7 61.7 229.3 62.3 250.2 63.5C271 64.7 292 66.3 312.8 68.7C333.7 71 354.3 74 375.2 72C396 70 417 63 437.8 61.2C458.7 59.3 479.3 62.7 500.2 65.3C521 68 542 70 562.8 70.2C583.7 70.3 604.3 68.7 625.2 68.5C646 68.3 667 69.7 687.8 69.8C708.7 70 729.3 69 750.2 66.5C771 64 792 60 812.8 58.5C833.7 57 854.3 58 875.2 60.2C896 62.3 917 65.7 937.8 65.5C958.7 65.3 979.3 61.7 989.7 59.8L1000 58L1000 0L989.7 0C979.3 0 958.7 0 937.8 0C917 0 896 0 875.2 0C854.3 0 833.7 0 812.8 0C792 0 771 0 750.2 0C729.3 0 708.7 0 687.8 0C667 0 646 0 625.2 0C604.3 0 583.7 0 562.8 0C542 0 521 0 500.2 0C479.3 0 458.7 0 437.8 0C417 0 396 0 375.2 0C354.3 0 333.7 0 312.8 0C292 0 271 0 250.2 0C229.3 0 208.7 0 187.8 0C167 0 146 0 125.2 0C104.3 0 83.7 0 62.8 0C42 0 21 0 10.5 0L0 0Z" fill="#ff8c6b"></path><path d="M0 39L10.5 40.8C21 42.7 42 46.3 62.8 47.3C83.7 48.3 104.3 46.7 125.2 45C146 43.3 167 41.7 187.8 43.7C208.7 45.7 229.3 51.3 250.2 54.5C271 57.7 292 58.3 312.8 56.3C333.7 54.3 354.3 49.7 375.2 49.7C396 49.7 417 54.3 437.8 53.3C458.7 52.3 479.3 45.7 500.2 43.3C521 41 542 43 562.8 43.7C583.7 44.3 604.3 43.7 625.2 42.8C646 42 667 41 687.8 42C708.7 43 729.3 46 750.2 49C771 52 792 55 812.8 55.7C833.7 56.3 854.3 54.7 875.2 52C896 49.3 917 45.7 937.8 43.8C958.7 42 979.3 42 989.7 42L1000 42L1000 0L989.7 0C979.3 0 958.7 0 937.8 0C917 0 896 0 875.2 0C854.3 0 833.7 0 812.8 0C792 0 771 0 750.2 0C729.3 0 708.7 0 687.8 0C667 0 646 0 625.2 0C604.3 0 583.7 0 562.8 0C542 0 521 0 500.2 0C479.3 0 458.7 0 437.8 0C417 0 396 0 375.2 0C354.3 0 333.7 0 312.8 0C292 0 271 0 250.2 0C229.3 0 208.7 0 187.8 0C167 0 146 0 125.2 0C104.3 0 83.7 0 62.8 0C42 0 21 0 10.5 0L0 0Z" fill="#ffa95c"></path><path d="M0 25L10.5 24.8C21 24.7 42 24.3 62.8 25C83.7 25.7 104.3 27.3 125.2 28.7C146 30 167 31 187.8 30.5C208.7 30 229.3 28 250.2 28.2C271 28.3 292 30.7 312.8 32.2C333.7 33.7 354.3 34.3 375.2 33.8C396 33.3 417 31.7 437.8 31.5C458.7 31.3 479.3 32.7 500.2 34C521 35.3 542 36.7 562.8 37C583.7 37.3 604.3 36.7 625.2 34.7C646 32.7 667 29.3 687.8 29.8C708.7 30.3 729.3 34.7 750.2 34.3C771 34 792 29 812.8 26.7C833.7 24.3 854.3 24.7 875.2 24.8C896 25 917 25 937.8 26.5C958.7 28 979.3 31 989.7 32.5L1000 34L1000 0L989.7 0C979.3 0 958.7 0 937.8 0C917 0 896 0 875.2 0C854.3 0 833.7 0 812.8 0C792 0 771 0 750.2 0C729.3 0 708.7 0 687.8 0C667 0 646 0 625.2 0C604.3 0 583.7 0 562.8 0C542 0 521 0 500.2 0C479.3 0 458.7 0 437.8 0C417 0 396 0 375.2 0C354.3 0 333.7 0 312.8 0C292 0 271 0 250.2 0C229.3 0 208.7 0 187.8 0C167 0 146 0 125.2 0C104.3 0 83.7 0 62.8 0C42 0 21 0 10.5 0L0 0Z" fill="#ffc854"></path><path d="M0 13L10.5 13.2C21 13.3 42 13.7 62.8 14C83.7 14.3 104.3 14.7 125.2 14.7C146 14.7 167 14.3 187.8 13.7C208.7 13 229.3 12 250.2 12.2C271 12.3 292 13.7 312.8 14.5C333.7 15.3 354.3 15.7 375.2 16.5C396 17.3 417 18.7 437.8 19C458.7 19.3 479.3 18.7 500.2 19.7C521 20.7 542 23.3 562.8 24C583.7 24.7 604.3 23.3 625.2 20.8C646 18.3 667 14.7 687.8 13C708.7 11.3 729.3 11.7 750.2 13.8C771 16 792 20 812.8 20.7C833.7 21.3 854.3 18.7 875.2 16.3C896 14 917 12 937.8 12C958.7 12 979.3 14 989.7 15L1000 16L1000 0L989.7 0C979.3 0 958.7 0 937.8 0C917 0 896 0 875.2 0C854.3 0 833.7 0 812.8 0C792 0 771 0 750.2 0C729.3 0 708.7 0 687.8 0C667 0 646 0 625.2 0C604.3 0 583.7 0 562.8 0C542 0 521 0 500.2 0C479.3 0 458.7 0 437.8 0C417 0 396 0 375.2 0C354.3 0 333.7 0 312.8 0C292 0 271 0 250.2 0C229.3 0 208.7 0 187.8 0C167 0 146 0 125.2 0C104.3 0 83.7 0 62.8 0C42 0 21 0 10.5 0L0 0Z" fill="#fee75c"></path></svg>