<svg id="visual" viewBox="0 0 1000 200" width="1000" height="200" xmlns="http://www.w3.org/2000/svg" xmlns:xlink="http://www.w3.org/1999/xlink" version="1.1"><path d="M0 39L12.8 33.3C25.7 27.7 51.3 16.3 77 12.3C102.7 8.3 128.3 11.7 154 12C179.7 12.3 205.3 9.7 231 11C256.7 12.3 282.3 17.7 308 21C333.7 24.3 359.3 25.7 385 27.3C410.7 29 436.3 31 461.8 31.7C487.3 32.3 512.7 31.7 538.2 29.7C563.7 27.7 589.3 24.3 615 22.3C640.7 20.3 666.3 19.7 692 17C717.7 14.3 743.3 9.7 769 12C794.7 14.3 820.3 23.7 846 27.7C871.7 31.7 897.3 30.3 923 27C948.7 23.7 974.3 18.3 987.2 15.7L1000 13L1000 0L987.2 0C974.3 0 948.7 0 923 0C897.3 0 871.7 0 846 0C820.3 0 794.7 0 769 0C743.3 0 717.7 0 692 0C666.3 0 640.7 0 615 0C589.3 0 563.7 0 538.2 0C512.7 0 487.3 0 461.8 0C436.3 0 410.7 0 385 0C359.3 0 333.7 0 308 0C282.3 0 256.7 0 231 0C205.3 0 179.7 0 154 0C128.3 0 102.7 0 77 0C51.3 0 25.7 0 12.8 0L0 0Z" fill="#ffffff"></path><path d="M0 89L12.8 83.3C25.7 77.7 51.3 66.3 77 60C102.7 53.7 128.3 52.3 154 51.7C179.7 51 205.3 51 231 52.3C256.7 53.7 282.3 56.3 308 61C333.7 65.7 359.3 72.3 385 75C410.7 77.7 436.3 76.3 461.8 70.3C487.3 64.3 512.7 53.7 538.2 48.3C563.7 43 589.3 43 615 42.3C640.7 41.7 666.3 40.3 692 38.3C717.7 36.3 743.3 33.7 769 37.7C794.7 41.7 820.3 52.3 846 55.3C871.7 58.3 897.3 53.7 923 45.7C948.7 37.7 974.3 26.3 987.2 20.7L1000 15L1000 11L987.2 13.7C974.3 16.3 948.7 21.7 923 25C897.3 28.3 871.7 29.7 846 25.7C820.3 21.7 794.7 12.3 769 10C743.3 7.7 717.7 12.3 692 15C666.3 17.7 640.7 18.3 615 20.3C589.3 22.3 563.7 25.7 538.2 27.7C512.7 29.7 487.3 30.3 461.8 29.7C436.3 29 410.7 27 385 25.3C359.3 23.7 333.7 22.3 308 19C282.3 15.7 256.7 10.3 231 9C205.3 7.7 179.7 10.3 154 10C128.3 9.7 102.7 6.3 77 10.3C51.3 14.3 25.7 25.7 12.8 31.3L0 37Z" fill="#c6c6c6"></path><path d="M0 97L12.8 90.7C25.7 84.3 51.3 71.7 77 65.7C102.7 59.7 128.3 60.3 154 65.3C179.7 70.3 205.3 79.7 231 85.3C256.7 91 282.3 93 308 94.3C333.7 95.7 359.3 96.3 385 97C410.7 97.7 436.3 98.3 461.8 89.3C487.3 80.3 512.7 61.7 538.2 57.3C563.7 53 589.3 63 615 66.7C640.7 70.3 666.3 67.7 692 66C717.7 64.3 743.3 63.7 769 69.3C794.7 75 820.3 87 846 92C871.7 97 897.3 95 923 88.3C948.7 81.7 974.3 70.3 987.2 64.7L1000 59L1000 13L987.2 18.7C974.3 24.3 948.7 35.7 923 43.7C897.3 51.7 871.7 56.3 846 53.3C820.3 50.3 794.7 39.7 769 35.7C743.3 31.7 717.7 34.3 692 36.3C666.3 38.3 640.7 39.7 615 40.3C589.3 41 563.7 41 538.2 46.3C512.7 51.7 487.3 62.3 461.8 68.3C436.3 74.3 410.7 75.7 385 73C359.3 70.3 333.7 63.7 308 59C282.3 54.3 256.7 51.7 231 50.3C205.3 49 179.7 49 154 49.7C128.3 50.3 102.7 51.7 77 58C51.3 64.3 25.7 75.7 12.8 81.3L0 87Z" fill="#919191"></path><path d="M0 173L12.8 161C25.7 149 51.3 125 77 112.3C102.7 99.7 128.3 98.3 154 110C179.7 121.7 205.3 146.3 231 153.3C256.7 160.3 282.3 149.7 308 143.3C333.7 137 359.3 135 385 129C410.7 123 436.3 113 461.8 113.3C487.3 113.7 512.7 124.3 538.2 125C563.7 125.7 589.3 116.3 615 120C640.7 123.7 666.3 140.3 692 151.3C717.7 162.3 743.3 167.7 769 163.7C794.7 159.7 820.3 146.3 846 142.3C871.7 138.3 897.3 143.7 923 134.7C948.7 125.7 974.3 102.3 987.2 90.7L1000 79L1000 57L987.2 62.7C974.3 68.3 948.7 79.7 923 86.3C897.3 93 871.7 95 846 90C820.3 85 794.7 73 769 67.3C743.3 61.7 717.7 62.3 692 64C666.3 65.7 640.7 68.3 615 64.7C589.3 61 563.7 51 538.2 55.3C512.7 59.7 487.3 78.3 461.8 87.3C436.3 96.3 410.7 95.7 385 95C359.3 94.3 333.7 93.7 308 92.3C282.3 91 256.7 89 231 83.3C205.3 77.7 179.7 68.3 154 63.3C128.3 58.3 102.7 57.7 77 63.7C51.3 69.7 25.7 82.3 12.8 88.7L0 95Z" fill="#5e5e5e"></path><path d="M0 195L12.8 181.3C25.7 167.7 51.3 140.3 77 129.3C102.7 118.3 128.3 123.7 154 137C179.7 150.3 205.3 171.7 231 179.3C256.7 187 282.3 181 308 174C333.7 167 359.3 159 385 153.3C410.7 147.7 436.3 144.3 461.8 142.3C487.3 140.3 512.7 139.7 538.2 141C563.7 142.3 589.3 145.7 615 151C640.7 156.3 666.3 163.7 692 169.7C717.7 175.7 743.3 180.3 769 178.3C794.7 176.3 820.3 167.7 846 165.3C871.7 163 897.3 167 923 158.7C948.7 150.3 974.3 129.7 987.2 119.3L1000 109L1000 77L987.2 88.7C974.3 100.3 948.7 123.7 923 132.7C897.3 141.7 871.7 136.3 846 140.3C820.3 144.3 794.7 157.7 769 161.7C743.3 165.7 717.7 160.3 692 149.3C666.3 138.3 640.7 121.7 615 118C589.3 114.3 563.7 123.7 538.2 123C512.7 122.3 487.3 111.7 461.8 111.3C436.3 111 410.7 121 385 127C359.3 133 333.7 135 308 141.3C282.3 147.7 256.7 158.3 231 151.3C205.3 144.3 179.7 119.7 154 108C128.3 96.3 102.7 97.7 77 110.3C51.3 123 25.7 147 12.8 159L0 171Z" fill="#303030"></path><path d="M0 201L12.8 201C25.7 201 51.3 201 77 201C102.7 201 128.3 201 154 201C179.7 201 205.3 201 231 201C256.7 201 282.3 201 308 201C333.7 201 359.3 201 385 201C410.7 201 436.3 201 461.8 201C487.3 201 512.7 201 538.2 201C563.7 201 589.3 201 615 201C640.7 201 666.3 201 692 201C717.7 201 743.3 201 769 201C794.7 201 820.3 201 846 201C871.7 201 897.3 201 923 201C948.7 201 974.3 201 987.2 201L1000 201L1000 107L987.2 117.3C974.3 127.7 948.7 148.3 923 156.7C897.3 165 871.7 161 846 163.3C820.3 165.7 794.7 174.3 769 176.3C743.3 178.3 717.7 173.7 692 167.7C666.3 161.7 640.7 154.3 615 149C589.3 143.7 563.7 140.3 538.2 139C512.7 137.7 487.3 138.3 461.8 140.3C436.3 142.3 410.7 145.7 385 151.3C359.3 157 333.7 165 308 172C282.3 179 256.7 185 231 177.3C205.3 169.7 179.7 148.3 154 135C128.3 121.7 102.7 116.3 77 127.3C51.3 138.3 25.7 165.7 12.8 179.3L0 193Z" fill="#000000"></path></svg>