<svg id="visual" viewBox="0 0 1000 200" width="1000" height="200" xmlns="http://www.w3.org/2000/svg" xmlns:xlink="http://www.w3.org/1999/xlink" version="1.1"><path d="M0 13L11.2 17.3C22.3 21.7 44.7 30.3 66.8 31C89 31.7 111 24.3 133.2 24C155.3 23.7 177.7 30.3 200 28.7C222.3 27 244.7 17 266.8 14C289 11 311 15 333.2 16.3C355.3 17.7 377.7 16.3 400 14C422.3 11.7 444.7 8.3 466.8 9C489 9.7 511 14.3 533.2 21.7C555.3 29 577.7 39 600 41.3C622.3 43.7 644.7 38.3 666.8 37.7C689 37 711 41 733.2 39.7C755.3 38.3 777.7 31.7 800 31.3C822.3 31 844.7 37 866.8 36.3C889 35.7 911 28.3 933.2 25.3C955.3 22.3 977.7 23.7 988.8 24.3L1000 25L1000 0L988.8 0C977.7 0 955.3 0 933.2 0C911 0 889 0 866.8 0C844.7 0 822.3 0 800 0C777.7 0 755.3 0 733.2 0C711 0 689 0 666.8 0C644.7 0 622.3 0 600 0C577.7 0 555.3 0 533.2 0C511 0 489 0 466.8 0C444.7 0 422.3 0 400 0C377.7 0 355.3 0 333.2 0C311 0 289 0 266.8 0C244.7 0 222.3 0 200 0C177.7 0 155.3 0 133.2 0C111 0 89 0 66.8 0C44.7 0 22.3 0 11.2 0L0 0Z" fill="#ffffff"></path><path d="M0 61L11.2 61C22.3 61 44.7 61 66.8 62.3C89 63.7 111 66.3 133.2 66C155.3 65.7 177.7 62.3 200 65.7C222.3 69 244.7 79 266.8 77.3C289 75.7 311 62.3 333.2 65.7C355.3 69 377.7 89 400 90C422.3 91 444.7 73 466.8 63.7C489 54.3 511 53.7 533.2 70C555.3 86.3 577.7 119.7 600 122.3C622.3 125 644.7 97 666.8 88C689 79 711 89 733.2 83.7C755.3 78.3 777.7 57.7 800 60C822.3 62.3 844.7 87.7 866.8 94.7C889 101.7 911 90.3 933.2 77.3C955.3 64.3 977.7 49.7 988.8 42.3L1000 35L1000 23L988.8 22.3C977.7 21.7 955.3 20.3 933.2 23.3C911 26.3 889 33.7 866.8 34.3C844.7 35 822.3 29 800 29.3C777.7 29.7 755.3 36.3 733.2 37.7C711 39 689 35 666.8 35.7C644.7 36.3 622.3 41.7 600 39.3C577.7 37 555.3 27 533.2 19.7C511 12.3 489 7.7 466.8 7C444.7 6.3 422.3 9.7 400 12C377.7 14.3 355.3 15.7 333.2 14.3C311 13 289 9 266.8 12C244.7 15 222.3 25 200 26.7C177.7 28.3 155.3 21.7 133.2 22C111 22.3 89 29.7 66.8 29C44.7 28.3 22.3 19.7 11.2 15.3L0 11Z" fill="#cecece"></path><path d="M0 119L11.2 119.7C22.3 120.3 44.7 121.7 66.8 124C89 126.3 111 129.7 133.2 133C155.3 136.3 177.7 139.7 200 145C222.3 150.3 244.7 157.7 266.8 154.3C289 151 311 137 333.2 132.7C355.3 128.3 377.7 133.7 400 134.7C422.3 135.7 444.7 132.3 466.8 130.7C489 129 511 129 533.2 135.3C555.3 141.7 577.7 154.3 600 157.3C622.3 160.3 644.7 153.7 666.8 144.7C689 135.7 711 124.3 733.2 125.7C755.3 127 777.7 141 800 142.7C822.3 144.3 844.7 133.7 866.8 127.3C889 121 911 119 933.2 119.3C955.3 119.7 977.7 122.3 988.8 123.7L1000 125L1000 33L988.8 40.3C977.7 47.7 955.3 62.3 933.2 75.3C911 88.3 889 99.7 866.8 92.7C844.7 85.7 822.3 60.3 800 58C777.7 55.7 755.3 76.3 733.2 81.7C711 87 689 77 666.8 86C644.7 95 622.3 123 600 120.3C577.7 117.7 555.3 84.3 533.2 68C511 51.7 489 52.3 466.8 61.7C444.7 71 422.3 89 400 88C377.7 87 355.3 67 333.2 63.7C311 60.3 289 73.7 266.8 75.3C244.7 77 222.3 67 200 63.7C177.7 60.3 155.3 63.7 133.2 64C111 64.3 89 61.7 66.8 60.3C44.7 59 22.3 59 11.2 59L0 59Z" fill="#a0a0a0"></path><path d="M0 127L11.2 128.3C22.3 129.7 44.7 132.3 66.8 137C89 141.7 111 148.3 133.2 150.3C155.3 152.3 177.7 149.7 200 154C222.3 158.3 244.7 169.7 266.8 168C289 166.3 311 151.7 333.2 150.3C355.3 149 377.7 161 400 163.3C422.3 165.7 444.7 158.3 466.8 154.7C489 151 511 151 533.2 154.7C555.3 158.3 577.7 165.7 600 170.3C622.3 175 644.7 177 666.8 171.7C689 166.3 711 153.7 733.2 153C755.3 152.3 777.7 163.7 800 166.3C822.3 169 844.7 163 866.8 154.7C889 146.3 911 135.7 933.2 134C955.3 132.3 977.7 139.7 988.8 143.3L1000 147L1000 123L988.8 121.7C977.7 120.3 955.3 117.7 933.2 117.3C911 117 889 119 866.8 125.3C844.7 131.7 822.3 142.3 800 140.7C777.7 139 755.3 125 733.2 123.7C711 122.3 689 133.7 666.8 142.7C644.7 151.7 622.3 158.3 600 155.3C577.7 152.3 555.3 139.7 533.2 133.3C511 127 489 127 466.8 128.7C444.7 130.3 422.3 133.7 400 132.7C377.7 131.7 355.3 126.3 333.2 130.7C311 135 289 149 266.8 152.3C244.7 155.7 222.3 148.3 200 143C177.7 137.7 155.3 134.3 133.2 131C111 127.7 89 124.3 66.8 122C44.7 119.7 22.3 118.3 11.2 117.7L0 117Z" fill="#a0a0a0"></path><path d="M0 163L11.2 164C22.3 165 44.7 167 66.8 167C89 167 111 165 133.2 164.3C155.3 163.7 177.7 164.3 200 168C222.3 171.7 244.7 178.3 266.8 177.3C289 176.3 311 167.7 333.2 167C355.3 166.3 377.7 173.7 400 177.7C422.3 181.7 444.7 182.3 466.8 179.3C489 176.3 511 169.7 533.2 171.7C555.3 173.7 577.7 184.3 600 189.7C622.3 195 644.7 195 666.8 188C689 181 711 167 733.2 165.7C755.3 164.3 777.7 175.7 800 177.3C822.3 179 844.7 171 866.8 163.7C889 156.3 911 149.7 933.2 151C955.3 152.3 977.7 161.7 988.8 166.3L1000 171L1000 145L988.8 141.3C977.7 137.7 955.3 130.3 933.2 132C911 133.7 889 144.3 866.8 152.7C844.7 161 822.3 167 800 164.3C777.7 161.7 755.3 150.3 733.2 151C711 151.7 689 164.3 666.8 169.7C644.7 175 622.3 173 600 168.3C577.7 163.7 555.3 156.3 533.2 152.7C511 149 489 149 466.8 152.7C444.7 156.3 422.3 163.7 400 161.3C377.7 159 355.3 147 333.2 148.3C311 149.7 289 164.3 266.8 166C244.7 167.7 222.3 156.3 200 152C177.7 147.7 155.3 150.3 133.2 148.3C111 146.3 89 139.7 66.8 135C44.7 130.3 22.3 127.7 11.2 126.3L0 125Z" fill="#cecece"></path><path d="M0 201L11.2 201C22.3 201 44.7 201 66.8 201C89 201 111 201 133.2 201C155.3 201 177.7 201 200 201C222.3 201 244.7 201 266.8 201C289 201 311 201 333.2 201C355.3 201 377.7 201 400 201C422.3 201 444.7 201 466.8 201C489 201 511 201 533.2 201C555.3 201 577.7 201 600 201C622.3 201 644.7 201 666.8 201C689 201 711 201 733.2 201C755.3 201 777.7 201 800 201C822.3 201 844.7 201 866.8 201C889 201 911 201 933.2 201C955.3 201 977.7 201 988.8 201L1000 201L1000 169L988.8 164.3C977.7 159.7 955.3 150.3 933.2 149C911 147.7 889 154.3 866.8 161.7C844.7 169 822.3 177 800 175.3C777.7 173.7 755.3 162.3 733.2 163.7C711 165 689 179 666.8 186C644.7 193 622.3 193 600 187.7C577.7 182.3 555.3 171.7 533.2 169.7C511 167.7 489 174.3 466.8 177.3C444.7 180.3 422.3 179.7 400 175.7C377.7 171.7 355.3 164.3 333.2 165C311 165.7 289 174.3 266.8 175.3C244.7 176.3 222.3 169.7 200 166C177.7 162.3 155.3 161.7 133.2 162.3C111 163 89 165 66.8 165C44.7 165 22.3 163 11.2 162L0 161Z" fill="#ffffff"></path></svg>