<svg id="visual" viewBox="0 0 1000 200" width="1000" height="200" xmlns="http://www.w3.org/2000/svg"
    xmlns:xlink="http://www.w3.org/1999/xlink" version="1.1">
    <path
        d="M0 23L9.3 22.7C18.7 22.3 37.3 21.7 55.8 23.3C74.3 25 92.7 29 111.2 30.3C129.7 31.7 148.3 30.3 166.8 28.7C185.3 27 203.7 25 222.2 22.7C240.7 20.3 259.3 17.7 277.8 17.7C296.3 17.7 314.7 20.3 333.2 21.7C351.7 23 370.3 23 388.8 24C407.3 25 425.7 27 444.2 30C462.7 33 481.3 37 500 35.3C518.7 33.7 537.3 26.3 555.8 25.3C574.3 24.3 592.7 29.7 611.2 30.3C629.7 31 648.3 27 666.8 27C685.3 27 703.7 31 722.2 30C740.7 29 759.3 23 777.8 23.7C796.3 24.3 814.7 31.7 833.2 32.3C851.7 33 870.3 27 888.8 27.3C907.3 27.7 925.7 34.3 944.2 35.3C962.7 36.3 981.3 31.7 990.7 29.3L1000 27L1000 0L990.7 0C981.3 0 962.7 0 944.2 0C925.7 0 907.3 0 888.8 0C870.3 0 851.7 0 833.2 0C814.7 0 796.3 0 777.8 0C759.3 0 740.7 0 722.2 0C703.7 0 685.3 0 666.8 0C648.3 0 629.7 0 611.2 0C592.7 0 574.3 0 555.8 0C537.3 0 518.7 0 500 0C481.3 0 462.7 0 444.2 0C425.7 0 407.3 0 388.8 0C370.3 0 351.7 0 333.2 0C314.7 0 296.3 0 277.8 0C259.3 0 240.7 0 222.2 0C203.7 0 185.3 0 166.8 0C148.3 0 129.7 0 111.2 0C92.7 0 74.3 0 55.8 0C37.3 0 18.7 0 9.3 0L0 0Z"
        fill="#ffffff"></path>
    <path
        d="M0 53L9.3 52.7C18.7 52.3 37.3 51.7 55.8 59.7C74.3 67.7 92.7 84.3 111.2 95C129.7 105.7 148.3 110.3 166.8 110.7C185.3 111 203.7 107 222.2 106.7C240.7 106.3 259.3 109.7 277.8 103.3C296.3 97 314.7 81 333.2 74C351.7 67 370.3 69 388.8 72.3C407.3 75.7 425.7 80.3 444.2 86C462.7 91.7 481.3 98.3 500 101C518.7 103.7 537.3 102.3 555.8 99.7C574.3 97 592.7 93 611.2 89.7C629.7 86.3 648.3 83.7 666.8 79.3C685.3 75 703.7 69 722.2 69.7C740.7 70.3 759.3 77.7 777.8 84.3C796.3 91 814.7 97 833.2 95.7C851.7 94.3 870.3 85.7 888.8 88.3C907.3 91 925.7 105 944.2 112.3C962.7 119.7 981.3 120.3 990.7 120.7L1000 121L1000 25L990.7 27.3C981.3 29.7 962.7 34.3 944.2 33.3C925.7 32.3 907.3 25.7 888.8 25.3C870.3 25 851.7 31 833.2 30.3C814.7 29.7 796.3 22.3 777.8 21.7C759.3 21 740.7 27 722.2 28C703.7 29 685.3 25 666.8 25C648.3 25 629.7 29 611.2 28.3C592.7 27.7 574.3 22.3 555.8 23.3C537.3 24.3 518.7 31.7 500 33.3C481.3 35 462.7 31 444.2 28C425.7 25 407.3 23 388.8 22C370.3 21 351.7 21 333.2 19.7C314.7 18.3 296.3 15.7 277.8 15.7C259.3 15.7 240.7 18.3 222.2 20.7C203.7 23 185.3 25 166.8 26.7C148.3 28.3 129.7 29.7 111.2 28.3C92.7 27 74.3 23 55.8 21.3C37.3 19.7 18.7 20.3 9.3 20.7L0 21Z"
        fill="#d3c4e6"></path>
    <path
        d="M0 87L9.3 85.3C18.7 83.7 37.3 80.3 55.8 84.7C74.3 89 92.7 101 111.2 109.3C129.7 117.7 148.3 122.3 166.8 124C185.3 125.7 203.7 124.3 222.2 125.3C240.7 126.3 259.3 129.7 277.8 123.7C296.3 117.7 314.7 102.3 333.2 94.7C351.7 87 370.3 87 388.8 91C407.3 95 425.7 103 444.2 109C462.7 115 481.3 119 500 122C518.7 125 537.3 127 555.8 123.3C574.3 119.7 592.7 110.3 611.2 105C629.7 99.7 648.3 98.3 666.8 96.3C685.3 94.3 703.7 91.7 722.2 91.7C740.7 91.7 759.3 94.3 777.8 101.3C796.3 108.3 814.7 119.7 833.2 120.3C851.7 121 870.3 111 888.8 113C907.3 115 925.7 129 944.2 135C962.7 141 981.3 139 990.7 138L1000 137L1000 119L990.7 118.7C981.3 118.3 962.7 117.7 944.2 110.3C925.7 103 907.3 89 888.8 86.3C870.3 83.7 851.7 92.3 833.2 93.7C814.7 95 796.3 89 777.8 82.3C759.3 75.7 740.7 68.3 722.2 67.7C703.7 67 685.3 73 666.8 77.3C648.3 81.7 629.7 84.3 611.2 87.7C592.7 91 574.3 95 555.8 97.7C537.3 100.3 518.7 101.7 500 99C481.3 96.3 462.7 89.7 444.2 84C425.7 78.3 407.3 73.7 388.8 70.3C370.3 67 351.7 65 333.2 72C314.7 79 296.3 95 277.8 101.3C259.3 107.7 240.7 104.3 222.2 104.7C203.7 105 185.3 109 166.8 108.7C148.3 108.3 129.7 103.7 111.2 93C92.7 82.3 74.3 65.7 55.8 57.7C37.3 49.7 18.7 50.3 9.3 50.7L0 51Z"
        fill="#a78ccc"></path>
    <path
        d="M0 173L9.3 173C18.7 173 37.3 173 55.8 173.7C74.3 174.3 92.7 175.7 111.2 173.3C129.7 171 148.3 165 166.8 164.7C185.3 164.3 203.7 169.7 222.2 173C240.7 176.3 259.3 177.7 277.8 173C296.3 168.3 314.7 157.7 333.2 154.7C351.7 151.7 370.3 156.3 388.8 156.7C407.3 157 425.7 153 444.2 154.3C462.7 155.7 481.3 162.3 500 166.3C518.7 170.3 537.3 171.7 555.8 170.3C574.3 169 592.7 165 611.2 161.7C629.7 158.3 648.3 155.7 666.8 157.3C685.3 159 703.7 165 722.2 169.7C740.7 174.3 759.3 177.7 777.8 179.3C796.3 181 814.7 181 833.2 180.3C851.7 179.7 870.3 178.3 888.8 177.7C907.3 177 925.7 177 944.2 176C962.7 175 981.3 173 990.7 172L1000 171L1000 135L990.7 136C981.3 137 962.7 139 944.2 133C925.7 127 907.3 113 888.8 111C870.3 109 851.7 119 833.2 118.3C814.7 117.7 796.3 106.3 777.8 99.3C759.3 92.3 740.7 89.7 722.2 89.7C703.7 89.7 685.3 92.3 666.8 94.3C648.3 96.3 629.7 97.7 611.2 103C592.7 108.3 574.3 117.7 555.8 121.3C537.3 125 518.7 123 500 120C481.3 117 462.7 113 444.2 107C425.7 101 407.3 93 388.8 89C370.3 85 351.7 85 333.2 92.7C314.7 100.3 296.3 115.7 277.8 121.7C259.3 127.7 240.7 124.3 222.2 123.3C203.7 122.3 185.3 123.7 166.8 122C148.3 120.3 129.7 115.7 111.2 107.3C92.7 99 74.3 87 55.8 82.7C37.3 78.3 18.7 81.7 9.3 83.3L0 85Z"
        fill="#7956b2"></path>
    <path
        d="M0 201L9.3 201C18.7 201 37.3 201 55.8 201C74.3 201 92.7 201 111.2 201C129.7 201 148.3 201 166.8 201C185.3 201 203.7 201 222.2 201C240.7 201 259.3 201 277.8 201C296.3 201 314.7 201 333.2 201C351.7 201 370.3 201 388.8 201C407.3 201 425.7 201 444.2 201C462.7 201 481.3 201 500 201C518.7 201 537.3 201 555.8 201C574.3 201 592.7 201 611.2 201C629.7 201 648.3 201 666.8 201C685.3 201 703.7 201 722.2 201C740.7 201 759.3 201 777.8 201C796.3 201 814.7 201 833.2 201C851.7 201 870.3 201 888.8 201C907.3 201 925.7 201 944.2 201C962.7 201 981.3 201 990.7 201L1000 201L1000 169L990.7 170C981.3 171 962.7 173 944.2 174C925.7 175 907.3 175 888.8 175.7C870.3 176.3 851.7 177.7 833.2 178.3C814.7 179 796.3 179 777.8 177.3C759.3 175.7 740.7 172.3 722.2 167.7C703.7 163 685.3 157 666.8 155.3C648.3 153.7 629.7 156.3 611.2 159.7C592.7 163 574.3 167 555.8 168.3C537.3 169.7 518.7 168.3 500 164.3C481.3 160.3 462.7 153.7 444.2 152.3C425.7 151 407.3 155 388.8 154.7C370.3 154.3 351.7 149.7 333.2 152.7C314.7 155.7 296.3 166.3 277.8 171C259.3 175.7 240.7 174.3 222.2 171C203.7 167.7 185.3 162.3 166.8 162.7C148.3 163 129.7 169 111.2 171.3C92.7 173.7 74.3 172.3 55.8 171.7C37.3 171 18.7 171 9.3 171L0 171Z"
        fill="#462197"></path>
</svg>